<svg width="41" height="41" viewBox="0 0 41 41" fill="none" xmlns="http://www.w3.org/2000/svg">
<path fill-rule="evenodd" clip-rule="evenodd" d="M15.8431 11.0283C17.9731 9.14997 20.7698 8.0083 23.8314 8.0083C30.4998 8.0083 35.9148 13.4233 35.9148 20.0916C35.9148 26.76 30.4998 32.175 23.8314 32.175C20.7698 32.175 17.9731 31.0333 15.8431 29.155C15.3264 28.6983 14.5348 28.7466 14.0781 29.265C13.6214 29.7816 13.6714 30.5716 14.1881 31.0283C16.7598 33.2983 20.1364 34.675 23.8314 34.675C31.8798 34.675 38.4148 28.14 38.4148 20.0916C38.4148 12.0433 31.8798 5.5083 23.8314 5.5083C20.1364 5.5083 16.7598 6.88497 14.1881 9.15497C13.6714 9.61163 13.6214 10.4016 14.0781 10.9183C14.5348 11.4366 15.3264 11.485 15.8431 11.0283Z" fill="#333333"/>
<path fill-rule="evenodd" clip-rule="evenodd" d="M21.9141 12.7583V19.425C21.9141 19.7566 22.0457 20.075 22.2807 20.3083L27.6141 25.6416C28.1007 26.13 28.8941 26.13 29.3807 25.6416C29.8691 25.155 29.8691 24.3616 29.3807 23.875L24.4141 18.9066V12.7583C24.4141 12.0683 23.8541 11.5083 23.1641 11.5083C22.4741 11.5083 21.9141 12.0683 21.9141 12.7583Z" fill="#333333"/>
<path fill-rule="evenodd" clip-rule="evenodd" d="M3.83203 15.5083H13.832C14.522 15.5083 15.082 14.9483 15.082 14.2583C15.082 13.5683 14.522 13.0083 13.832 13.0083H3.83203C3.14203 13.0083 2.58203 13.5683 2.58203 14.2583C2.58203 14.9483 3.14203 15.5083 3.83203 15.5083Z" fill="#333333"/>
<path fill-rule="evenodd" clip-rule="evenodd" d="M5.5 21.3413H15.5C16.19 21.3413 16.75 20.7813 16.75 20.0913C16.75 19.4013 16.19 18.8413 15.5 18.8413H5.5C4.81 18.8413 4.25 19.4013 4.25 20.0913C4.25 20.7813 4.81 21.3413 5.5 21.3413Z" fill="#333333"/>
<path fill-rule="evenodd" clip-rule="evenodd" d="M7.16406 27.1753H17.1641C17.8541 27.1753 18.4141 26.6153 18.4141 25.9253C18.4141 25.2353 17.8541 24.6753 17.1641 24.6753H7.16406C6.47406 24.6753 5.91406 25.2353 5.91406 25.9253C5.91406 26.6153 6.47406 27.1753 7.16406 27.1753Z" fill="#333333"/>
</svg>
