<svg width="30" height="31" viewBox="0 0 30 31" fill="none" xmlns="http://www.w3.org/2000/svg">
<g clip-path="url(#clip0_2850_2245)">
<path d="M25 30.0913C27.7601 30.0881 29.9969 27.8514 30.0001 25.0913V5.09133C29.9969 2.33119 27.7601 0.094498 25 0.0913086H5.00003C2.23988 0.094498 0.00318939 2.33119 0 5.09133V25.0913C0.00318939 27.8514 2.23988 30.0882 5.00003 30.0914L25 30.0913ZM2.49999 25.0913V5.09133C2.50141 3.71121 3.61986 2.59277 4.99998 2.59135H25C26.3801 2.59277 27.4985 3.71121 27.5 5.09133V25.0913C27.4985 26.4715 26.3801 27.5899 25 27.5913H5.00003C3.6199 27.5899 2.50146 26.4715 2.49999 25.0913Z" fill="#333333"/>
<path d="M9.99999 20.0913V15.0913C9.99999 14.4009 9.44032 13.8413 8.74999 13.8413C8.05966 13.8413 7.5 14.401 7.5 15.0913V20.0913C7.5 20.7817 8.05966 21.3413 8.74999 21.3413C9.44032 21.3413 9.99999 20.7817 9.99999 20.0913Z" fill="#333333"/>
<path d="M16.25 20.0913V8.8413C16.25 8.15092 15.6903 7.59131 15 7.59131C14.3096 7.59131 13.75 8.15097 13.75 8.8413V20.0913C13.75 20.7817 14.3097 21.3413 15 21.3413C15.6903 21.3413 16.25 20.7817 16.25 20.0913Z" fill="#333333"/>
<path d="M22.5 20.0913V12.5913C22.5 11.9009 21.9403 11.3413 21.25 11.3413C20.5597 11.3413 20 11.901 20 12.5913V20.0913C20 20.7817 20.5597 21.3413 21.25 21.3413C21.9403 21.3413 22.5 20.7817 22.5 20.0913Z" fill="#333333"/>
</g>
<defs>
<clipPath id="clip0_2850_2245">
<rect width="30" height="30" fill="white" transform="translate(0 0.0913086)"/>
</clipPath>
</defs>
</svg>
