<svg width="41" height="41" viewBox="0 0 41 41" fill="none" xmlns="http://www.w3.org/2000/svg">
<g clip-path="url(#clip0_2850_2236)">
<path d="M39.3898 15.6192L35.5171 12.3893C34.9103 11.883 34.1867 11.5716 33.4799 11.512C32.6583 11.446 31.9207 11.7247 31.4535 12.2842L28.4395 15.898L16.9394 29.6887L16.9471 29.6951C16.8016 29.8694 16.7119 30.0879 16.717 30.3244L16.8689 37.8039C16.8747 38.0891 17.0067 38.3569 17.2297 38.5351C17.4014 38.6729 17.6136 38.7459 17.8302 38.7459C17.8943 38.7459 17.9583 38.7395 18.0218 38.7267L25.2167 37.2636C25.4346 37.2194 25.6191 37.0964 25.7563 36.9317L25.7633 36.9374L37.209 23.2128L40.2229 19.599C41.1285 18.5114 40.7619 16.7638 39.3898 15.6192ZM18.7671 36.6119L18.6806 32.3681L22.8494 35.7813L18.7671 36.6119ZM24.8956 34.9732L19.0363 30.1751L29.3002 17.868L35.116 22.718L24.8956 34.9732ZM38.7458 18.3666L36.3477 21.2415L30.5319 16.3915L32.93 13.5159C32.9877 13.4467 33.1389 13.4134 33.3184 13.4281C33.6305 13.4544 33.9829 13.614 34.2848 13.8659L38.1575 17.0958C38.7605 17.5982 38.8816 18.2045 38.7458 18.3666Z" fill="#333333"/>
<path d="M13.5421 31.0739C13.4934 31.0425 13.4427 31.0182 13.3915 30.9964C13.3857 30.9938 13.3806 30.99 13.3748 30.988C13.2633 30.9432 13.1466 30.9227 13.0307 30.9214C13.0242 30.9214 13.0185 30.9201 13.0127 30.9201C12.8948 30.9208 12.7782 30.9445 12.6686 30.9868C12.6628 30.9887 12.6577 30.99 12.6519 30.9919C12.5372 31.0393 12.4308 31.1085 12.3398 31.1989C12.3392 31.1995 12.3385 31.1995 12.3379 31.2002L12.336 31.2021C12.3347 31.2034 12.3328 31.2053 12.3315 31.2066L9.89815 33.6393C9.36111 34.1731 8.49147 34.1731 7.95892 33.6418L7.28602 32.9689C6.75411 32.437 6.75539 31.5667 7.28602 31.0329L9.72255 28.5964C9.7232 28.5957 9.72384 28.5951 9.72512 28.5938L9.72832 28.5906C9.72896 28.5899 9.7296 28.5887 9.73024 28.5874C9.81996 28.497 9.88918 28.3913 9.9366 28.2772C9.93916 28.2714 9.93981 28.265 9.94237 28.2593C9.98466 28.1497 10.0084 28.0337 10.009 27.9164C10.009 27.9106 10.0077 27.9049 10.0077 27.8985C10.0065 27.7818 9.98531 27.6652 9.94045 27.5537C9.93852 27.5492 9.93532 27.5453 9.9334 27.5409C9.91161 27.4883 9.88661 27.437 9.85457 27.3877C9.05414 26.156 8.49275 24.8025 8.18578 23.365C8.18258 23.3503 8.17617 23.3375 8.17232 23.3227C8.16015 23.2759 8.14669 23.2285 8.12811 23.1849C8.11849 23.1625 8.10439 23.1426 8.0935 23.1209C8.07556 23.0869 8.05889 23.0529 8.03774 23.0215C8.02365 23.001 8.00634 22.9837 7.99096 22.9651C7.96725 22.9356 7.94418 22.9055 7.91726 22.8792C7.90317 22.8651 7.8865 22.8543 7.87176 22.8414C7.83972 22.8139 7.80768 22.7857 7.77243 22.7626C7.75961 22.7543 7.74551 22.7485 7.73206 22.7408C7.69232 22.7171 7.65195 22.694 7.60837 22.6767C7.59235 22.6703 7.57569 22.6671 7.55967 22.6614C7.51737 22.6466 7.47571 22.6319 7.4315 22.6235C7.40073 22.6178 7.36933 22.6171 7.33793 22.6139C7.30781 22.6107 7.27833 22.605 7.24693 22.605H3.79592C3.03843 22.605 2.42257 21.9891 2.42257 21.2322V20.2902C2.42257 19.5333 3.03843 18.9175 3.79592 18.9175H7.24501H7.24821C7.25013 18.9175 7.25206 18.9162 7.25398 18.9162C7.35395 18.9155 7.4488 18.8957 7.53916 18.8668C7.55454 18.8617 7.56992 18.8585 7.5853 18.8527C7.6731 18.8194 7.75385 18.7739 7.82754 18.7181C7.84164 18.7079 7.85382 18.697 7.86728 18.6855C7.93905 18.6239 8.00378 18.5547 8.05505 18.4753C8.06146 18.465 8.06594 18.4541 8.07171 18.4439C8.12298 18.3573 8.16335 18.2631 8.18578 18.1619C8.18642 18.16 8.18706 18.1587 8.18771 18.1568C8.49468 16.7199 9.05607 15.3665 9.85649 14.1334C9.88854 14.0841 9.91353 14.0328 9.93532 13.9803C9.93724 13.9758 9.93981 13.9719 9.94173 13.9675C9.98659 13.8553 10.0077 13.7387 10.009 13.622C10.009 13.6163 10.0103 13.6105 10.0103 13.6047C10.0097 13.4868 9.98595 13.3708 9.94365 13.2612C9.94173 13.2555 9.94045 13.2497 9.93788 13.2439C9.89046 13.1292 9.82125 13.0228 9.73089 12.9318C9.73025 12.9312 9.73025 12.9305 9.7296 12.9299L9.72768 12.928C9.72576 12.9261 9.72384 12.9241 9.72191 12.9222L7.28987 10.4902C6.75667 9.95311 6.75539 9.08283 7.2873 8.55091L7.9602 7.87801C8.49275 7.3461 9.36239 7.34738 9.89687 7.87801L12.3392 10.3203C12.343 10.3242 12.3488 10.3255 12.3526 10.3293C12.4347 10.4088 12.5282 10.4684 12.6295 10.5132C12.6525 10.5235 12.675 10.5312 12.698 10.5395C12.8012 10.576 12.9076 10.601 13.0172 10.6017H13.0191C13.1274 10.6017 13.2364 10.5767 13.3415 10.5389C13.3729 10.528 13.4011 10.5119 13.4312 10.4978C13.4684 10.4799 13.5074 10.4696 13.5427 10.4466C14.7744 9.64614 16.1279 9.08475 17.5647 8.77778C17.5762 8.77521 17.5865 8.77009 17.598 8.76688C17.6487 8.75407 17.698 8.73997 17.7448 8.7201C17.7691 8.70985 17.7903 8.69511 17.8127 8.68293C17.8448 8.66563 17.8774 8.65025 17.9076 8.62974C17.9332 8.61179 17.9556 8.59065 17.9793 8.57014C18.0024 8.55027 18.0274 8.53233 18.0486 8.51054C18.0703 8.48875 18.0876 8.46376 18.1069 8.4394C18.1267 8.41505 18.1479 8.39262 18.1645 8.36635C18.1812 8.34135 18.1927 8.31444 18.2068 8.28752C18.2216 8.25932 18.2389 8.23241 18.2511 8.20293C18.2639 8.17088 18.2722 8.13756 18.2818 8.10423C18.2895 8.07796 18.2998 8.05232 18.3055 8.02477C18.3145 7.97927 18.3171 7.93184 18.3196 7.88506C18.3203 7.86904 18.3248 7.85366 18.3248 7.837V7.83187C18.3248 7.83059 18.3248 7.82995 18.3248 7.82866V4.38661C18.3248 3.62975 18.9406 3.01389 19.6981 3.01389H20.6395C21.397 3.01389 22.0129 3.62975 22.0129 4.38661V7.83059V7.83123V7.83764C22.0129 7.85878 22.018 7.87801 22.0193 7.89916C22.0219 7.94146 22.0238 7.98375 22.0321 8.02477C22.0385 8.05617 22.0494 8.08501 22.059 8.11513C22.068 8.14461 22.0744 8.17473 22.0859 8.20293C22.0988 8.23497 22.1167 8.26381 22.1334 8.29393C22.1468 8.31828 22.1577 8.34391 22.1731 8.36699C22.191 8.3939 22.2122 8.41761 22.2327 8.44197C22.2513 8.46504 22.2686 8.48939 22.2897 8.51118C22.3109 8.53297 22.3352 8.55091 22.3589 8.57014C22.3833 8.59065 22.4057 8.61244 22.432 8.63038C22.4602 8.64961 22.4916 8.66434 22.5217 8.68101C22.5461 8.69447 22.5691 8.70985 22.5948 8.72074C22.6377 8.73933 22.6839 8.75214 22.73 8.76432C22.7454 8.76816 22.7588 8.77521 22.7742 8.77842C24.2104 9.08539 25.5645 9.64678 26.7975 10.4472C26.8321 10.4696 26.8712 10.4799 26.9071 10.4978C26.9379 10.5126 26.9667 10.5286 26.9981 10.5395C27.1032 10.5773 27.2109 10.6023 27.3198 10.6023C27.43 10.6023 27.5377 10.5767 27.6409 10.5401C27.664 10.5318 27.6864 10.5241 27.7095 10.5139C27.8107 10.469 27.9043 10.4094 27.9863 10.3299C27.9901 10.3261 27.9959 10.3248 28.0004 10.321L30.4395 7.88122C30.9765 7.3493 31.8468 7.34674 32.3787 7.87865L33.0516 8.55155C33.4182 8.91813 33.5252 9.44363 33.3868 9.91082C33.4611 9.91274 33.5342 9.91018 33.6092 9.91594C34.1654 9.96273 34.7198 10.1185 35.2491 10.3562C35.5362 9.2597 35.2658 8.04656 34.4109 7.19229L33.738 6.51939C32.4588 5.24023 30.3716 5.23895 29.0822 6.51939L27.1654 8.43684C26.147 7.8543 25.0672 7.4057 23.9361 7.09744V4.38661C23.9361 2.56977 22.4576 1.09131 20.6402 1.09131H19.6988C17.8819 1.09131 16.4028 2.56977 16.4028 4.38661V7.0968C15.2717 7.4057 14.1912 7.85366 13.1736 8.4362L11.2536 6.51618C9.96736 5.23831 7.87881 5.23959 6.60095 6.51875L5.92805 7.19165C4.6489 8.47016 4.64826 10.5574 5.92805 11.8475L7.84485 13.7643C7.26231 14.7826 6.81435 15.8625 6.50546 16.9936H3.79592C1.9791 16.9936 0.5 18.4721 0.5 20.2889V21.231C0.5 23.0478 1.97845 24.5263 3.79592 24.5263H6.50546C6.81435 25.658 7.26231 26.7379 7.84485 27.7555L5.92549 29.6756C4.64762 30.9618 4.6489 33.049 5.92805 34.3282L6.60095 35.0011C7.24052 35.6407 8.08261 35.9605 8.92533 35.9605C9.76806 35.9605 10.6121 35.6413 11.2561 35.0011L13.1736 33.0843C13.8202 33.4547 14.495 33.7636 15.1891 34.0244L15.1468 31.9384C14.5943 31.6891 14.056 31.4072 13.5421 31.0739Z" fill="#333333"/>
<path d="M13.1687 20.7598C13.1687 16.9005 16.3082 13.761 20.1674 13.761C22.463 13.761 24.4983 14.8773 25.7756 16.5897L27.0381 15.076C25.4 13.0996 22.9289 11.8384 20.1674 11.8384C15.2482 11.8384 11.2461 15.8405 11.2461 20.7598C11.2461 24.0967 13.0905 27.0075 15.8109 28.5379L17.0708 27.0274C14.7625 25.8815 13.1687 23.5065 13.1687 20.7598Z" fill="#333333"/>
</g>
<defs>
<clipPath id="clip0_2850_2236">
<rect width="40" height="40" fill="white" transform="translate(0.5 0.0913086)"/>
</clipPath>
</defs>
</svg>
