<svg width="40" height="41" viewBox="0 0 40 41" fill="none" xmlns="http://www.w3.org/2000/svg">
<path d="M12.15 13.8413C13.3756 13.8453 14.5754 13.4889 15.6 12.8163L18.1 11.1288C18.7151 10.7208 19.4369 10.5034 20.175 10.5038H30.4875V15.0913C30.4875 15.4228 30.6192 15.7408 30.8536 15.9752C31.088 16.2096 31.406 16.3413 31.7375 16.3413C32.069 16.3413 32.387 16.2096 32.6214 15.9752C32.8558 15.7408 32.9875 15.4228 32.9875 15.0913V7.59131C32.9875 6.59675 32.5924 5.64292 31.8892 4.93966C31.1859 4.2364 30.2321 3.84131 29.2375 3.84131H7.5C6.50544 3.84131 5.55161 4.2364 4.84835 4.93966C4.14509 5.64292 3.75 6.59675 3.75 7.59131V24.3538C3.75 25.3484 4.14509 26.3022 4.84835 27.0055C5.55161 27.7087 6.50544 28.1038 7.5 28.1038H13.925C14.2565 28.1038 14.5745 27.9721 14.8089 27.7377C15.0433 27.5033 15.175 27.1853 15.175 26.8538C15.175 26.5223 15.0433 26.2043 14.8089 25.9699C14.5745 25.7355 14.2565 25.6038 13.925 25.6038H7.5C7.16848 25.6038 6.85054 25.4721 6.61612 25.2377C6.3817 25.0033 6.25 24.6853 6.25 24.3538V13.8413H12.15ZM6.25 7.59131C6.25 7.25979 6.3817 6.94185 6.61612 6.70743C6.85054 6.473 7.16848 6.34131 7.5 6.34131H29.2875C29.619 6.34131 29.937 6.473 30.1714 6.70743C30.4058 6.94185 30.5375 7.25979 30.5375 7.59131V8.05381H20.225C18.9981 8.05352 17.7982 8.41435 16.775 9.09131L14.275 10.7788C13.6367 11.1695 12.898 11.365 12.15 11.3413H6.25V7.59131ZM8.75 7.80381C8.53244 7.80381 8.31977 7.86832 8.13887 7.98919C7.95798 8.11006 7.81699 8.28186 7.73373 8.48286C7.65048 8.68386 7.62869 8.90503 7.67114 9.11841C7.71358 9.33179 7.81835 9.52779 7.97218 9.68163C8.12602 9.83546 8.32202 9.94023 8.5354 9.98267C8.74878 10.0251 8.96995 10.0033 9.17095 9.92008C9.37195 9.83682 9.54375 9.69583 9.66462 9.51494C9.78549 9.33404 9.85 9.12137 9.85 8.90381C9.85168 8.75889 9.82437 8.6151 9.76968 8.48088C9.71499 8.34667 9.63403 8.22474 9.53155 8.12226C9.42907 8.01978 9.30714 7.93881 9.17293 7.88413C9.03871 7.82944 8.89492 7.80213 8.75 7.80381ZM13.075 8.90381C13.075 8.68625 13.0105 8.47358 12.8896 8.29268C12.7687 8.11179 12.597 7.9708 12.396 7.88754C12.195 7.80428 11.9738 7.7825 11.7604 7.82494C11.547 7.86739 11.351 7.97215 11.1972 8.12599C11.0433 8.27983 10.9386 8.47583 10.8961 8.68921C10.8537 8.90259 10.8755 9.12376 10.9587 9.32476C11.042 9.52576 11.183 9.69756 11.3639 9.81843C11.5448 9.93929 11.7574 10.0038 11.975 10.0038C12.124 10.0124 12.2733 9.99022 12.4133 9.93863C12.5534 9.88705 12.6814 9.80718 12.7893 9.70398C12.8972 9.60079 12.9827 9.47649 13.0404 9.33883C13.0982 9.20117 13.127 9.05308 13.125 8.90381H13.075ZM35.0375 19.7413C34.735 19.5573 34.3913 19.4517 34.0377 19.4342C33.684 19.4168 33.3316 19.488 33.0125 19.6413L25.35 23.3913H18.85C18.187 23.3913 17.5511 23.6547 17.0822 24.1235C16.6134 24.5924 16.35 25.2283 16.35 25.8913V29.3663C16.35 30.0294 16.6134 30.6652 17.0822 31.1341C17.5511 31.6029 18.187 31.8663 18.85 31.8663H20.525V35.0913C20.525 35.4228 20.6567 35.7408 20.8911 35.9752C21.1255 36.2096 21.4435 36.3413 21.775 36.3413C22.1065 36.3413 22.4245 36.2096 22.6589 35.9752C22.8933 35.7408 23.025 35.4228 23.025 35.0913V31.9163H25.3875L33.1375 35.1663C33.3905 35.2739 33.6626 35.3292 33.9375 35.3288C34.3521 35.324 34.7562 35.198 35.1 34.9663C35.4575 34.737 35.7506 34.4205 35.9518 34.0465C36.153 33.6725 36.2556 33.2534 36.25 32.8288V21.9288C36.2558 21.4959 36.1523 21.0684 35.9491 20.6861C35.7459 20.3037 35.4496 19.9788 35.0875 19.7413H35.0375ZM24.75 29.4163H18.9V25.9413H24.75V29.4163ZM33.75 32.6788L27.25 29.9663V25.3163L33.75 22.1038V32.6788Z" fill="#333333"/>
</svg>
