<svg width="20" height="20" viewBox="0 0 20 20" fill="none" xmlns="http://www.w3.org/2000/svg">
<path d="M7.93832 17.0321C7.862 17.0321 7.78702 17.0121 7.72079 16.9742C7.65457 16.9363 7.5994 16.8817 7.56077 16.8159C6.1013 14.3293 2.2102 9.03496 2.17111 8.98177C2.10879 8.89708 2.07904 8.7928 2.08729 8.68798C2.09553 8.58316 2.14123 8.4848 2.21602 8.4109L3.41257 7.22859C3.48539 7.15663 3.58113 7.11246 3.68314 7.10378C3.78515 7.09509 3.88698 7.12243 3.97092 7.18104L7.84717 9.88776C10.4405 6.56184 12.8494 4.26454 14.4342 2.90899C16.2181 1.38306 17.3538 0.696352 17.4012 0.667897C17.4693 0.627052 17.5472 0.605473 17.6265 0.605469H19.5622C19.6509 0.605464 19.7376 0.632431 19.8106 0.682794C19.8837 0.733157 19.9397 0.804537 19.9713 0.887474C20.0029 0.97041 20.0085 1.06099 19.9875 1.14719C19.9664 1.2334 19.9196 1.31117 19.8533 1.37019C14.3563 6.26643 8.37846 16.7061 8.31888 16.8109C8.28088 16.8777 8.22598 16.9332 8.15972 16.972C8.09345 17.0109 8.01813 17.0316 7.94134 17.0321H7.93832Z" fill="url(#paint0_linear_2189_2774)"/>
<path d="M15.3224 19.3949H0.437782C0.321675 19.3949 0.210323 19.3488 0.128223 19.2667C0.0461233 19.1846 0 19.0732 0 18.9571V4.07255C0 3.95644 0.0461233 3.84509 0.128223 3.76299C0.210323 3.68089 0.321675 3.63477 0.437782 3.63477H10.0904C10.2065 3.63477 10.3179 3.68089 10.4 3.76299C10.4821 3.84509 10.5282 3.95644 10.5282 4.07255C10.5282 4.18865 10.4821 4.30001 10.4 4.38211C10.3179 4.46421 10.2065 4.51033 10.0904 4.51033H0.875564V18.5194H14.8846V9.30457C14.8846 9.18846 14.9307 9.07711 15.0128 8.99501C15.0949 8.91291 15.2063 8.86679 15.3224 8.86679C15.4385 8.86679 15.5498 8.91291 15.6319 8.99501C15.714 9.07711 15.7602 9.18846 15.7602 9.30457V18.9571C15.7602 19.0732 15.714 19.1846 15.6319 19.2667C15.5498 19.3488 15.4385 19.3949 15.3224 19.3949Z" fill="url(#paint1_linear_2189_2774)"/>
<defs>
<linearGradient id="paint0_linear_2189_2774" x1="2.08594" y1="8.81876" x2="20" y2="8.81876" gradientUnits="userSpaceOnUse">
<stop stop-color="#389BE9"/>
<stop offset="1" stop-color="#B13FBC"/>
</linearGradient>
<linearGradient id="paint1_linear_2189_2774" x1="0" y1="11.5148" x2="15.7602" y2="11.5148" gradientUnits="userSpaceOnUse">
<stop stop-color="#389BE9"/>
<stop offset="1" stop-color="#B13FBC"/>
</linearGradient>
</defs>
</svg>
