<svg width="60" height="52" viewBox="0 0 60 52" fill="none" xmlns="http://www.w3.org/2000/svg">
<rect width="60" height="52" rx="8" fill="url(#paint0_linear_2073_633)" fill-opacity="0.8"/>
<path d="M19.1967 29.6017C18.4664 31.4457 17.3156 33.2674 15.7775 35.0225C15.2906 35.5779 15.2242 36.3777 15.6225 36.9997C15.9324 37.4885 16.4414 37.7551 16.9947 37.7551C17.1496 37.7551 17.3045 37.744 17.4595 37.6884C20.7127 36.7331 28.3148 33.3452 28.525 22.4814C28.6024 18.2937 25.5484 14.6947 21.5758 14.2837C19.3738 14.0615 17.1828 14.7835 15.5561 16.2498C13.9295 17.7272 13 19.8377 13 22.0371C13 25.7028 15.5894 28.9131 19.1967 29.6017Z" fill="white"/>
<path d="M37.6694 29.6017C36.939 31.4457 35.7882 33.2674 34.2501 35.0225C33.7632 35.5779 33.6968 36.3777 34.0952 36.9997C34.4051 37.4885 34.914 37.7551 35.4673 37.7551C35.6222 37.7551 35.7772 37.744 35.9321 37.6884C39.1853 36.7331 46.7874 33.3452 46.9977 22.4814C47.0751 18.2937 44.021 14.6947 40.0484 14.2837C37.8464 14.0615 35.6555 14.7835 34.0288 16.2498C32.4022 17.7272 31.4727 19.8377 31.4727 22.0371C31.4727 25.7028 34.062 28.9131 37.6694 29.6017Z" fill="white"/>
<defs>
<linearGradient id="paint0_linear_2073_633" x1="8.76572" y1="44.403" x2="45.1984" y2="2.36742" gradientUnits="userSpaceOnUse">
<stop stop-color="#FAAD4F"/>
<stop offset="0.35" stop-color="#DD2A7B"/>
<stop offset="0.62" stop-color="#9537B0"/>
<stop offset="1" stop-color="#515BD4"/>
</linearGradient>
</defs>
</svg>
