<svg width="41" height="41" viewBox="0 0 41 41" fill="none" xmlns="http://www.w3.org/2000/svg">
<g clip-path="url(#clip0_2024_21)">
<path d="M39.3898 15.6197L35.5171 12.3898C34.9103 11.8835 34.1867 11.5721 33.4799 11.5125C32.6583 11.4465 31.9207 11.7252 31.4535 12.2847L28.4395 15.8985L16.9394 29.6892L16.9471 29.6956C16.8016 29.8699 16.7119 30.0884 16.717 30.3249L16.8689 37.8044C16.8747 38.0896 17.0067 38.3574 17.2297 38.5356C17.4014 38.6734 17.6136 38.7464 17.8302 38.7464C17.8943 38.7464 17.9583 38.74 18.0218 38.7272L25.2167 37.2641C25.4346 37.2199 25.6191 37.0969 25.7563 36.9322L25.7633 36.9379L37.209 23.2133L40.2229 19.5995C41.1285 18.5119 40.7619 16.7643 39.3898 15.6197ZM18.7671 36.6124L18.6806 32.3686L22.8494 35.7818L18.7671 36.6124ZM24.8956 34.9737L19.0363 30.1756L29.3002 17.8685L35.116 22.7185L24.8956 34.9737ZM38.7458 18.3671L36.3477 21.242L30.5319 16.392L32.93 13.5164C32.9877 13.4472 33.1389 13.4139 33.3184 13.4286C33.6305 13.4549 33.9829 13.6145 34.2848 13.8663L38.1575 17.0963C38.7605 17.5987 38.8816 18.205 38.7458 18.3671Z" fill="white"/>
<path d="M13.5421 31.0744C13.4934 31.043 13.4427 31.0187 13.3915 30.9969C13.3857 30.9943 13.3806 30.9905 13.3748 30.9885C13.2633 30.9437 13.1466 30.9232 13.0307 30.9219C13.0242 30.9219 13.0185 30.9206 13.0127 30.9206C12.8948 30.9212 12.7782 30.945 12.6686 30.9872C12.6628 30.9892 12.6577 30.9905 12.6519 30.9924C12.5372 31.0398 12.4308 31.109 12.3398 31.1994C12.3392 31.2 12.3385 31.2 12.3379 31.2007L12.336 31.2026C12.3347 31.2039 12.3328 31.2058 12.3315 31.2071L9.89815 33.6398C9.36111 34.1736 8.49147 34.1736 7.95892 33.6423L7.28602 32.9694C6.75411 32.4375 6.75539 31.5672 7.28602 31.0334L9.72255 28.5968C9.7232 28.5962 9.72384 28.5956 9.72512 28.5943L9.72832 28.5911C9.72896 28.5904 9.7296 28.5892 9.73024 28.5879C9.81996 28.4975 9.88918 28.3918 9.9366 28.2777C9.93916 28.2719 9.93981 28.2655 9.94237 28.2598C9.98466 28.1502 10.0084 28.0342 10.009 27.9169C10.009 27.9111 10.0077 27.9054 10.0077 27.8989C10.0065 27.7823 9.98531 27.6657 9.94045 27.5542C9.93852 27.5497 9.93532 27.5458 9.9334 27.5413C9.91161 27.4888 9.88661 27.4375 9.85457 27.3882C9.05414 26.1565 8.49275 24.803 8.18578 23.3655C8.18258 23.3508 8.17617 23.338 8.17232 23.3232C8.16015 23.2764 8.14669 23.229 8.12811 23.1854C8.11849 23.163 8.10439 23.1431 8.0935 23.1213C8.07556 23.0874 8.05889 23.0534 8.03774 23.022C8.02365 23.0015 8.00634 22.9842 7.99096 22.9656C7.96725 22.9361 7.94418 22.906 7.91726 22.8797C7.90317 22.8656 7.8865 22.8547 7.87176 22.8419C7.83972 22.8144 7.80768 22.7862 7.77243 22.7631C7.75961 22.7548 7.74551 22.749 7.73206 22.7413C7.69232 22.7176 7.65195 22.6945 7.60837 22.6772C7.59235 22.6708 7.57569 22.6676 7.55967 22.6618C7.51737 22.6471 7.47571 22.6324 7.4315 22.624C7.40073 22.6183 7.36933 22.6176 7.33793 22.6144C7.30781 22.6112 7.27833 22.6054 7.24693 22.6054H3.79592C3.03843 22.6054 2.42257 21.9896 2.42257 21.2327V20.2907C2.42257 19.5338 3.03843 18.9179 3.79592 18.9179H7.24501H7.24821C7.25013 18.9179 7.25206 18.9167 7.25398 18.9167C7.35395 18.916 7.4488 18.8962 7.53916 18.8673C7.55454 18.8622 7.56992 18.859 7.5853 18.8532C7.6731 18.8199 7.75385 18.7744 7.82754 18.7186C7.84164 18.7084 7.85382 18.6975 7.86728 18.686C7.93905 18.6244 8.00378 18.5552 8.05505 18.4758C8.06146 18.4655 8.06594 18.4546 8.07171 18.4443C8.12298 18.3578 8.16335 18.2636 8.18578 18.1624C8.18642 18.1604 8.18706 18.1592 8.18771 18.1572C8.49468 16.7204 9.05607 15.3669 9.85649 14.1339C9.88854 14.0846 9.91353 14.0333 9.93532 13.9808C9.93724 13.9763 9.93981 13.9724 9.94173 13.9679C9.98659 13.8558 10.0077 13.7392 10.009 13.6225C10.009 13.6168 10.0103 13.611 10.0103 13.6052C10.0097 13.4873 9.98595 13.3713 9.94365 13.2617C9.94173 13.256 9.94045 13.2502 9.93788 13.2444C9.89046 13.1297 9.82125 13.0233 9.73089 12.9323C9.73025 12.9317 9.73025 12.931 9.7296 12.9304L9.72768 12.9285C9.72576 12.9265 9.72384 12.9246 9.72191 12.9227L7.28987 10.4906C6.75667 9.9536 6.75539 9.08331 7.2873 8.5514L7.9602 7.8785C8.49275 7.34659 9.36239 7.34787 9.89687 7.8785L12.3392 10.3208C12.343 10.3247 12.3488 10.3259 12.3526 10.3298C12.4347 10.4093 12.5282 10.4689 12.6295 10.5137C12.6525 10.524 12.675 10.5317 12.698 10.54C12.8012 10.5765 12.9076 10.6015 13.0172 10.6022H13.0191C13.1274 10.6022 13.2364 10.5772 13.3415 10.5393C13.3729 10.5285 13.4011 10.5124 13.4312 10.4983C13.4684 10.4804 13.5074 10.4701 13.5427 10.4471C14.7744 9.64663 16.1279 9.08524 17.5647 8.77826C17.5762 8.7757 17.5865 8.77058 17.598 8.76737C17.6487 8.75455 17.698 8.74046 17.7448 8.72059C17.7691 8.71033 17.7903 8.69559 17.8127 8.68342C17.8448 8.66611 17.8774 8.65073 17.9076 8.63023C17.9332 8.61228 17.9556 8.59113 17.9793 8.57063C18.0024 8.55076 18.0274 8.53282 18.0486 8.51103C18.0703 8.48924 18.0876 8.46424 18.1069 8.43989C18.1267 8.41554 18.1479 8.39311 18.1645 8.36683C18.1812 8.34184 18.1927 8.31492 18.2068 8.28801C18.2216 8.25981 18.2389 8.23289 18.2511 8.20341C18.2639 8.17137 18.2722 8.13805 18.2818 8.10472C18.2895 8.07845 18.2998 8.05281 18.3055 8.02526C18.3145 7.97975 18.3171 7.93233 18.3196 7.88555C18.3203 7.86953 18.3248 7.85415 18.3248 7.83748V7.83236C18.3248 7.83108 18.3248 7.83043 18.3248 7.82915V4.3871C18.3248 3.63024 18.9406 3.01438 19.6981 3.01438H20.6395C21.397 3.01438 22.0129 3.63024 22.0129 4.3871V7.83108V7.83172V7.83812C22.0129 7.85927 22.018 7.8785 22.0193 7.89965C22.0219 7.94194 22.0238 7.98424 22.0321 8.02526C22.0385 8.05666 22.0494 8.0855 22.059 8.11562C22.068 8.1451 22.0744 8.17522 22.0859 8.20341C22.0988 8.23546 22.1167 8.2643 22.1334 8.29442C22.1468 8.31877 22.1577 8.3444 22.1731 8.36747C22.191 8.39439 22.2122 8.4181 22.2327 8.44246C22.2513 8.46553 22.2686 8.48988 22.2897 8.51167C22.3109 8.53346 22.3352 8.5514 22.3589 8.57063C22.3833 8.59113 22.4057 8.61292 22.432 8.63087C22.4602 8.65009 22.4916 8.66483 22.5217 8.6815C22.5461 8.69495 22.5691 8.71033 22.5948 8.72123C22.6377 8.73981 22.6839 8.75263 22.73 8.76481C22.7454 8.76865 22.7588 8.7757 22.7742 8.77891C24.2104 9.08588 25.5645 9.64727 26.7975 10.4477C26.8321 10.4701 26.8712 10.4804 26.9071 10.4983C26.9379 10.5131 26.9667 10.5291 26.9981 10.54C27.1032 10.5778 27.2109 10.6028 27.3198 10.6028C27.43 10.6028 27.5377 10.5772 27.6409 10.5406C27.664 10.5323 27.6864 10.5246 27.7095 10.5144C27.8107 10.4695 27.9043 10.4099 27.9863 10.3304C27.9901 10.3266 27.9959 10.3253 28.0004 10.3215L30.4395 7.8817C30.9765 7.34979 31.8468 7.34723 32.3787 7.87914L33.0516 8.55204C33.4182 8.91861 33.5252 9.44412 33.3868 9.91131C33.4611 9.91323 33.5342 9.91066 33.6092 9.91643C34.1654 9.96321 34.7198 10.1189 35.2491 10.3567C35.5362 9.26019 35.2658 8.04704 34.4109 7.19278L33.738 6.51988C32.4588 5.24072 30.3716 5.23944 29.0822 6.51988L27.1654 8.43733C26.147 7.85479 25.0672 7.40619 23.9361 7.09793V4.3871C23.9361 2.57026 22.4576 1.0918 20.6402 1.0918H19.6988C17.8819 1.0918 16.4028 2.57026 16.4028 4.3871V7.09729C15.2717 7.40619 14.1912 7.85415 13.1736 8.43669L11.2536 6.51667C9.96736 5.2388 7.87881 5.24008 6.60095 6.51924L5.92805 7.19214C4.6489 8.47065 4.64826 10.5579 5.92805 11.848L7.84485 13.7648C7.26231 14.7831 6.81435 15.863 6.50546 16.9941H3.79592C1.9791 16.9941 0.5 18.4725 0.5 20.2894V21.2314C0.5 23.0483 1.97845 24.5267 3.79592 24.5267H6.50546C6.81435 25.6585 7.26231 26.7384 7.84485 27.756L5.92549 29.6761C4.64762 30.9623 4.6489 33.0495 5.92805 34.3287L6.60095 35.0016C7.24052 35.6412 8.08261 35.961 8.92533 35.961C9.76806 35.961 10.6121 35.6418 11.2561 35.0016L13.1736 33.0848C13.8202 33.4552 14.495 33.7641 15.1891 34.0249L15.1468 31.9389C14.5943 31.6896 14.056 31.4077 13.5421 31.0744Z" fill="white"/>
<path d="M13.1687 20.7603C13.1687 16.901 16.3082 13.7614 20.1674 13.7614C22.463 13.7614 24.4983 14.8778 25.7756 16.5902L27.0381 15.0765C25.4 13.1001 22.9289 11.8389 20.1674 11.8389C15.2482 11.8389 11.2461 15.841 11.2461 20.7603C11.2461 24.0972 13.0905 27.008 15.8109 28.5384L17.0708 27.0279C14.7625 25.882 13.1687 23.507 13.1687 20.7603Z" fill="white"/>
</g>
<defs>
<clipPath id="clip0_2024_21">
<rect width="40" height="40" fill="white" transform="translate(0.5 0.0917969)"/>
</clipPath>
</defs>
</svg>
