<svg width="41" height="41" viewBox="0 0 41 41" fill="none" xmlns="http://www.w3.org/2000/svg">
<path fill-rule="evenodd" clip-rule="evenodd" d="M15.8431 11.0288C17.9731 9.15046 20.7698 8.00879 23.8314 8.00879C30.4998 8.00879 35.9148 13.4238 35.9148 20.0921C35.9148 26.7605 30.4998 32.1755 23.8314 32.1755C20.7698 32.1755 17.9731 31.0338 15.8431 29.1555C15.3264 28.6988 14.5348 28.7471 14.0781 29.2655C13.6214 29.7821 13.6714 30.5721 14.1881 31.0288C16.7598 33.2988 20.1364 34.6755 23.8314 34.6755C31.8798 34.6755 38.4148 28.1405 38.4148 20.0921C38.4148 12.0438 31.8798 5.50879 23.8314 5.50879C20.1364 5.50879 16.7598 6.88546 14.1881 9.15546C13.6714 9.61212 13.6214 10.4021 14.0781 10.9188C14.5348 11.4371 15.3264 11.4855 15.8431 11.0288Z" fill="white"/>
<path fill-rule="evenodd" clip-rule="evenodd" d="M21.9141 12.7588V19.4255C21.9141 19.7571 22.0457 20.0755 22.2807 20.3088L27.6141 25.6421C28.1007 26.1305 28.8941 26.1305 29.3807 25.6421C29.8691 25.1555 29.8691 24.3621 29.3807 23.8755L24.4141 18.9071V12.7588C24.4141 12.0688 23.8541 11.5088 23.1641 11.5088C22.4741 11.5088 21.9141 12.0688 21.9141 12.7588Z" fill="white"/>
<path fill-rule="evenodd" clip-rule="evenodd" d="M3.83203 15.5088H13.832C14.522 15.5088 15.082 14.9488 15.082 14.2588C15.082 13.5688 14.522 13.0088 13.832 13.0088H3.83203C3.14203 13.0088 2.58203 13.5688 2.58203 14.2588C2.58203 14.9488 3.14203 15.5088 3.83203 15.5088Z" fill="white"/>
<path fill-rule="evenodd" clip-rule="evenodd" d="M5.5 21.3418H15.5C16.19 21.3418 16.75 20.7818 16.75 20.0918C16.75 19.4018 16.19 18.8418 15.5 18.8418H5.5C4.81 18.8418 4.25 19.4018 4.25 20.0918C4.25 20.7818 4.81 21.3418 5.5 21.3418Z" fill="white"/>
<path fill-rule="evenodd" clip-rule="evenodd" d="M7.16406 27.1758H17.1641C17.8541 27.1758 18.4141 26.6158 18.4141 25.9258C18.4141 25.2358 17.8541 24.6758 17.1641 24.6758H7.16406C6.47406 24.6758 5.91406 25.2358 5.91406 25.9258C5.91406 26.6158 6.47406 27.1758 7.16406 27.1758Z" fill="white"/>
</svg>
