<svg width="30" height="31" viewBox="0 0 30 31" fill="none" xmlns="http://www.w3.org/2000/svg">
<g clip-path="url(#clip0_2024_29)">
<path d="M25 30.0918C27.7601 30.0886 29.9969 27.8519 30.0001 25.0918V5.09182C29.9969 2.33168 27.7601 0.0949863 25 0.0917969H5.00003C2.23988 0.0949863 0.00318939 2.33168 0 5.09182V25.0918C0.00318939 27.8519 2.23988 30.0887 5.00003 30.0918L25 30.0918ZM2.49999 25.0918V5.09182C2.50141 3.7117 3.61986 2.59326 4.99998 2.59183H25C26.3801 2.59326 27.4985 3.7117 27.5 5.09182V25.0918C27.4985 26.4719 26.3801 27.5904 25 27.5918H5.00003C3.6199 27.5904 2.50146 26.4719 2.49999 25.0918Z" fill="white"/>
<path d="M9.99999 20.0918V15.0918C9.99999 14.4014 9.44032 13.8418 8.74999 13.8418C8.05966 13.8418 7.5 14.4015 7.5 15.0918V20.0918C7.5 20.7822 8.05966 21.3418 8.74999 21.3418C9.44032 21.3418 9.99999 20.7821 9.99999 20.0918Z" fill="white"/>
<path d="M16.25 20.0918V8.84179C16.25 8.15141 15.6903 7.5918 15 7.5918C14.3096 7.5918 13.75 8.15146 13.75 8.84179V20.0918C13.75 20.7822 14.3097 21.3418 15 21.3418C15.6903 21.3418 16.25 20.7822 16.25 20.0918Z" fill="white"/>
<path d="M22.5 20.0918V12.5918C22.5 11.9014 21.9403 11.3418 21.25 11.3418C20.5597 11.3418 20 11.9015 20 12.5918V20.0918C20 20.7822 20.5597 21.3418 21.25 21.3418C21.9403 21.3418 22.5 20.7822 22.5 20.0918Z" fill="white"/>
</g>
<defs>
<clipPath id="clip0_2024_29">
<rect width="30" height="30" fill="white" transform="translate(0 0.0917969)"/>
</clipPath>
</defs>
</svg>
