<svg width="40" height="41" viewBox="0 0 40 41" fill="none" xmlns="http://www.w3.org/2000/svg">
<path d="M12.15 13.8418C13.3756 13.8458 14.5754 13.4893 15.6 12.8168L18.1 11.1293C18.7151 10.7213 19.4369 10.5039 20.175 10.5043H30.4875V15.0918C30.4875 15.4233 30.6192 15.7413 30.8536 15.9757C31.088 16.2101 31.406 16.3418 31.7375 16.3418C32.069 16.3418 32.387 16.2101 32.6214 15.9757C32.8558 15.7413 32.9875 15.4233 32.9875 15.0918V7.5918C32.9875 6.59723 32.5924 5.64341 31.8892 4.94015C31.1859 4.23689 30.2321 3.8418 29.2375 3.8418H7.5C6.50544 3.8418 5.55161 4.23689 4.84835 4.94015C4.14509 5.64341 3.75 6.59723 3.75 7.5918V24.3543C3.75 25.3489 4.14509 26.3027 4.84835 27.0059C5.55161 27.7092 6.50544 28.1043 7.5 28.1043H13.925C14.2565 28.1043 14.5745 27.9726 14.8089 27.7382C15.0433 27.5038 15.175 27.1858 15.175 26.8543C15.175 26.5228 15.0433 26.2048 14.8089 25.9704C14.5745 25.736 14.2565 25.6043 13.925 25.6043H7.5C7.16848 25.6043 6.85054 25.4726 6.61612 25.2382C6.3817 25.0038 6.25 24.6858 6.25 24.3543V13.8418H12.15ZM6.25 7.5918C6.25 7.26028 6.3817 6.94233 6.61612 6.70791C6.85054 6.47349 7.16848 6.3418 7.5 6.3418H29.2875C29.619 6.3418 29.937 6.47349 30.1714 6.70791C30.4058 6.94233 30.5375 7.26028 30.5375 7.5918V8.0543H20.225C18.9981 8.05401 17.7982 8.41483 16.775 9.0918L14.275 10.7793C13.6367 11.17 12.898 11.3655 12.15 11.3418H6.25V7.5918ZM8.75 7.8043C8.53244 7.8043 8.31977 7.86881 8.13887 7.98968C7.95798 8.11055 7.81699 8.28235 7.73373 8.48335C7.65048 8.68434 7.62869 8.90552 7.67114 9.1189C7.71358 9.33228 7.81835 9.52828 7.97218 9.68211C8.12602 9.83595 8.32202 9.94072 8.5354 9.98316C8.74878 10.0256 8.96995 10.0038 9.17095 9.92056C9.37195 9.83731 9.54375 9.69632 9.66462 9.51542C9.78549 9.33453 9.85 9.12186 9.85 8.9043C9.85168 8.75938 9.82437 8.61559 9.76968 8.48137C9.71499 8.34716 9.63403 8.22523 9.53155 8.12275C9.42907 8.02027 9.30714 7.9393 9.17293 7.88462C9.03871 7.82993 8.89492 7.80262 8.75 7.8043ZM13.075 8.9043C13.075 8.68674 13.0105 8.47406 12.8896 8.29317C12.7687 8.11228 12.597 7.97129 12.396 7.88803C12.195 7.80477 11.9738 7.78299 11.7604 7.82543C11.547 7.86788 11.351 7.97264 11.1972 8.12648C11.0433 8.28032 10.9386 8.47632 10.8961 8.6897C10.8537 8.90308 10.8755 9.12425 10.9587 9.32525C11.042 9.52625 11.183 9.69804 11.3639 9.81891C11.5448 9.93978 11.7574 10.0043 11.975 10.0043C12.124 10.0129 12.2733 9.9907 12.4133 9.93912C12.5534 9.88754 12.6814 9.80766 12.7893 9.70447C12.8972 9.60128 12.9827 9.47698 13.0404 9.33932C13.0982 9.20165 13.127 9.05357 13.125 8.9043H13.075ZM35.0375 19.7418C34.735 19.5577 34.3913 19.4522 34.0377 19.4347C33.684 19.4173 33.3316 19.4884 33.0125 19.6418L25.35 23.3918H18.85C18.187 23.3918 17.5511 23.6552 17.0822 24.124C16.6134 24.5929 16.35 25.2288 16.35 25.8918V29.3668C16.35 30.0298 16.6134 30.6657 17.0822 31.1346C17.5511 31.6034 18.187 31.8668 18.85 31.8668H20.525V35.0918C20.525 35.4233 20.6567 35.7413 20.8911 35.9757C21.1255 36.2101 21.4435 36.3418 21.775 36.3418C22.1065 36.3418 22.4245 36.2101 22.6589 35.9757C22.8933 35.7413 23.025 35.4233 23.025 35.0918V31.9168H25.3875L33.1375 35.1668C33.3905 35.2744 33.6626 35.3297 33.9375 35.3293C34.3521 35.3245 34.7562 35.1984 35.1 34.9668C35.4575 34.7375 35.7506 34.421 35.9518 34.047C36.153 33.673 36.2556 33.2539 36.25 32.8293V21.9293C36.2558 21.4963 36.1523 21.0689 35.9491 20.6866C35.7459 20.3042 35.4496 19.9793 35.0875 19.7418H35.0375ZM24.75 29.4168H18.9V25.9418H24.75V29.4168ZM33.75 32.6793L27.25 29.9668V25.3168L33.75 22.1043V32.6793Z" fill="white"/>
</svg>
