<svg width="50" height="51" viewBox="0 0 50 51" fill="none" xmlns="http://www.w3.org/2000/svg">
<rect y="0.0913086" width="50" height="50" rx="8" fill="url(#paint0_linear_2353_9024)" fill-opacity="0.8"/>
<path d="M15.0098 25.0815C15.0098 20.4917 15.0098 15.912 15.0098 11.3222C15.0098 11.0716 14.9803 11.0917 15.2363 11.0917C18.5252 11.0917 21.8239 11.0917 25.1128 11.0917C27.1412 11.0917 28.9629 11.723 30.5483 13.0258C32.1139 14.3085 33.1183 15.9621 33.5417 17.9663C33.7387 18.8783 33.7682 19.8103 33.6697 20.7322C33.5319 21.9448 33.1577 23.0872 32.5373 24.1395C32.5373 24.1595 32.5177 24.1695 32.5078 24.1896C32.4487 24.2597 32.4684 24.3098 32.5275 24.37C32.7934 24.6305 33.0297 24.9211 33.2562 25.2118C34.0144 26.2339 34.5363 27.3663 34.812 28.619C34.94 29.2303 35.0089 29.8416 34.9991 30.4629C34.9695 32.6075 34.2803 34.5015 32.8918 36.115C31.5625 37.6482 29.8984 38.5902 27.929 38.961C27.4071 39.0612 26.8852 39.0913 26.3535 39.0913C22.6412 39.0913 18.9388 39.0913 15.2265 39.0913C15.1969 39.0913 15.1674 39.0913 15.1379 39.0913C15.0525 39.0913 15.0066 39.0445 15 38.951C15 38.9009 15 38.8508 15 38.8107C15 34.241 15 29.6612 15 25.0915L15.0098 25.0815ZM24.1379 28.3885C23.3403 28.3885 22.5329 28.3885 21.7353 28.3885C21.5482 28.3885 21.5482 28.3885 21.5482 28.5789C21.5482 29.8216 21.5482 31.0542 21.5482 32.2968C21.5482 32.3369 21.5482 32.367 21.5482 32.4071C21.5482 32.4772 21.5777 32.5073 21.6467 32.4973C21.6762 32.4973 21.7057 32.4973 21.7353 32.4973C23.3009 32.4973 24.8666 32.4973 26.4323 32.4973C26.5701 32.4973 26.708 32.4872 26.8458 32.4572C27.9782 32.2267 28.6872 31.0943 28.4213 29.9719C28.1949 29.0199 27.3973 28.3785 26.4323 28.3785C25.6642 28.3785 24.8961 28.3785 24.1379 28.3785V28.3885ZM21.5482 19.7401C21.5482 20.3714 21.5482 21.0028 21.5482 21.6341C21.5482 21.8145 21.5482 21.8145 21.7254 21.8145C21.755 21.8145 21.7845 21.8145 21.8141 21.8145C22.8775 21.8145 23.941 21.8145 25.0045 21.8145C25.1423 21.8145 25.2703 21.8145 25.4082 21.7945C26.8852 21.6442 27.7025 19.9405 26.9148 18.6678C26.5012 18.0164 25.9005 17.6958 25.1423 17.6958C24.0099 17.6958 22.8775 17.6958 21.7451 17.6958C21.7057 17.6958 21.6762 17.6958 21.6368 17.6958C21.5777 17.6958 21.5482 17.7258 21.5482 17.7859C21.5482 17.826 21.5482 17.8661 21.5482 17.9062C21.5482 18.5175 21.5482 19.1288 21.5482 19.7401Z" fill="white"/>
<defs>
<linearGradient id="paint0_linear_2353_9024" x1="7.30477" y1="42.7865" x2="42.6952" y2="7.39783" gradientUnits="userSpaceOnUse">
<stop stop-color="#FAAD4F"/>
<stop offset="0.35" stop-color="#DD2A7B"/>
<stop offset="0.62" stop-color="#9537B0"/>
<stop offset="1" stop-color="#515BD4"/>
</linearGradient>
</defs>
</svg>
