<svg width="72" height="72" viewBox="0 0 72 72" fill="none" xmlns="http://www.w3.org/2000/svg">
<path d="M61.498 41.9995C60.7024 41.9995 59.9393 42.3156 59.3767 42.8782C58.8141 43.4408 58.498 44.2039 58.498 44.9995V56.9995C58.498 57.7952 58.182 58.5582 57.6194 59.1208C57.0568 59.6834 56.2937 59.9995 55.498 59.9995H13.498C12.7024 59.9995 11.9393 59.6834 11.3767 59.1208C10.8141 58.5582 10.498 57.7952 10.498 56.9995V28.2295L28.138 45.8995C29.8255 47.5849 32.113 48.5316 34.498 48.5316C36.883 48.5316 39.1705 47.5849 40.858 45.8995L45.778 40.9795C46.343 40.4146 46.6603 39.6484 46.6603 38.8495C46.6603 38.0506 46.343 37.2844 45.778 36.7195C45.2131 36.1546 44.4469 35.8372 43.648 35.8372C42.8491 35.8372 42.083 36.1546 41.518 36.7195L36.598 41.6395C36.0373 42.1892 35.2833 42.4971 34.498 42.4971C33.7128 42.4971 32.9588 42.1892 32.398 41.6395L14.728 23.9995H34.498C35.2937 23.9995 36.0568 23.6834 36.6194 23.1208C37.182 22.5582 37.498 21.7952 37.498 20.9995C37.498 20.2039 37.182 19.4408 36.6194 18.8782C36.0568 18.3156 35.2937 17.9995 34.498 17.9995H13.498C11.1111 17.9995 8.82191 18.9477 7.13409 20.6355C5.44626 22.3234 4.49805 24.6126 4.49805 26.9995V56.9995C4.49805 59.3865 5.44626 61.6756 7.13409 63.3635C8.82191 65.0513 11.1111 65.9995 13.498 65.9995H55.498C57.885 65.9995 60.1742 65.0513 61.862 63.3635C63.5498 61.6756 64.498 59.3865 64.498 56.9995V44.9995C64.498 44.2039 64.182 43.4408 63.6194 42.8782C63.0568 42.3156 62.2937 41.9995 61.498 41.9995ZM66.628 21.8695C66.3491 21.5883 66.0173 21.3651 65.6518 21.2128C65.2862 21.0605 64.8941 20.9821 64.498 20.9821C64.102 20.9821 63.7099 21.0605 63.3443 21.2128C62.9787 21.3651 62.6469 21.5883 62.368 21.8695L58.498 25.7695V8.99951C58.498 8.20386 58.182 7.4408 57.6194 6.87819C57.0568 6.31558 56.2937 5.99951 55.498 5.99951C54.7024 5.99951 53.9393 6.31558 53.3767 6.87819C52.8141 7.4408 52.498 8.20386 52.498 8.99951V25.7695L48.628 21.8695C48.3483 21.5898 48.0163 21.3679 47.6508 21.2165C47.2853 21.0652 46.8936 20.9872 46.498 20.9872C45.6991 20.9872 44.933 21.3046 44.368 21.8695C44.0883 22.1492 43.8664 22.4813 43.7151 22.8468C43.5637 23.2122 43.4858 23.6039 43.4858 23.9995C43.4858 24.7984 43.8031 25.5646 44.368 26.1295L53.368 35.1295C53.6534 35.4026 53.9898 35.6167 54.358 35.7595C54.7171 35.9182 55.1054 36.0002 55.498 36.0002C55.8907 36.0002 56.2789 35.9182 56.638 35.7595C57.0063 35.6167 57.3427 35.4026 57.628 35.1295L66.628 26.1295C66.9092 25.8506 67.1324 25.5188 67.2847 25.1532C67.437 24.7877 67.5154 24.3955 67.5154 23.9995C67.5154 23.6035 67.437 23.2114 67.2847 22.8458C67.1324 22.4802 66.9092 22.1484 66.628 21.8695Z" fill="url(#paint0_linear_2258_20853)" fill-opacity="0.8"/>
<defs>
<linearGradient id="paint0_linear_2258_20853" x1="13.7046" y1="57.2338" x2="56.1222" y2="12.6852" gradientUnits="userSpaceOnUse">
<stop stop-color="#FAAD4F"/>
<stop offset="0.35" stop-color="#DD2A7B"/>
<stop offset="0.62" stop-color="#9537B0"/>
<stop offset="1" stop-color="#515BD4"/>
</linearGradient>
</defs>
</svg>
