<svg width="50" height="51" viewBox="0 0 50 51" fill="none" xmlns="http://www.w3.org/2000/svg">
<rect y="0.0913086" width="50" height="50" rx="8" fill="url(#paint0_linear_2353_9046)" fill-opacity="0.8"/>
<path d="M12.6906 36.8664C12.2264 36.8639 11.7819 36.6784 11.4537 36.3502C11.1255 36.022 10.94 35.5775 10.9375 35.1133V20.6945C10.94 19.7331 11.323 18.8117 12.0029 18.1318C12.6828 17.4519 13.6041 17.0689 14.5656 17.0664H31.675C32.6381 17.0664 33.5619 17.4484 34.2438 18.1285C34.9257 18.8086 35.31 19.7314 35.3125 20.6945V30.3039C35.3125 31.267 34.9306 32.1908 34.2504 32.8727C33.5703 33.5546 32.6475 33.9389 31.6844 33.9414H17.4156C17.2536 33.9427 17.0961 33.9952 16.9656 34.0914L13.75 36.5195C13.4434 36.7461 13.0719 36.8678 12.6906 36.8664ZM14.5656 18.9414C14.1014 18.9439 13.6569 19.1294 13.3287 19.4576C13.0005 19.7858 12.815 20.2303 12.8125 20.6945V34.8789L15.8406 32.5914C16.2963 32.253 16.8481 32.0691 17.4156 32.0664H31.675C32.1424 32.0664 32.5907 31.8807 32.9213 31.5502C33.2518 31.2196 33.4375 30.7713 33.4375 30.3039V20.6945C33.435 20.2303 33.2495 19.7858 32.9213 19.4576C32.5931 19.1294 32.1486 18.9439 31.6844 18.9414H14.5656Z" fill="white"/>
<path d="M26.8184 26.5259C27.3361 26.5259 27.7559 26.1061 27.7559 25.5884C27.7559 25.0706 27.3361 24.6509 26.8184 24.6509C26.3006 24.6509 25.8809 25.0706 25.8809 25.5884C25.8809 26.1061 26.3006 26.5259 26.8184 26.5259Z" fill="white"/>
<path d="M23.1816 26.5259C23.6994 26.5259 24.1191 26.1061 24.1191 25.5884C24.1191 25.0706 23.6994 24.6509 23.1816 24.6509C22.6639 24.6509 22.2441 25.0706 22.2441 25.5884C22.2441 26.1061 22.6639 26.5259 23.1816 26.5259Z" fill="white"/>
<path d="M19.4316 26.5259C19.9494 26.5259 20.3691 26.1061 20.3691 25.5884C20.3691 25.0706 19.9494 24.6509 19.4316 24.6509C18.9139 24.6509 18.4941 25.0706 18.4941 25.5884C18.4941 26.1061 18.9139 26.5259 19.4316 26.5259Z" fill="white"/>
<path d="M38.125 27.3789C37.8764 27.3789 37.6379 27.2801 37.4621 27.1043C37.2863 26.9285 37.1875 26.69 37.1875 26.4414V16.9445C37.185 16.4803 36.9995 16.0358 36.6713 15.7076C36.3431 15.3794 35.8986 15.1939 35.4344 15.1914H16.5625C16.3139 15.1914 16.0754 15.0926 15.8996 14.9168C15.7238 14.741 15.625 14.5025 15.625 14.2539C15.625 14.0053 15.7238 13.7668 15.8996 13.591C16.0754 13.4152 16.3139 13.3164 16.5625 13.3164H35.4344C36.3959 13.3189 37.3172 13.7019 37.9971 14.3818C38.677 15.0617 39.06 15.9831 39.0625 16.9445V26.4414C39.0625 26.69 38.9637 26.9285 38.7879 27.1043C38.6121 27.2801 38.3736 27.3789 38.125 27.3789Z" fill="white"/>
<defs>
<linearGradient id="paint0_linear_2353_9046" x1="7.30477" y1="42.7865" x2="42.6952" y2="7.39783" gradientUnits="userSpaceOnUse">
<stop stop-color="#FAAD4F"/>
<stop offset="0.35" stop-color="#DD2A7B"/>
<stop offset="0.62" stop-color="#9537B0"/>
<stop offset="1" stop-color="#515BD4"/>
</linearGradient>
</defs>
</svg>
