<svg width="50" height="51" viewBox="0 0 50 51" fill="none" xmlns="http://www.w3.org/2000/svg">
<rect y="0.591797" width="50" height="50" rx="8" fill="url(#paint0_linear_2126_1785)" fill-opacity="0.8"/>
<g clip-path="url(#clip0_2126_1785)">
<path d="M35.6066 29.9852C33.9729 28.3514 32.0283 27.142 29.9066 26.4099C32.179 24.8448 33.6719 22.2255 33.6719 19.2637C33.6719 14.482 29.7817 10.5918 25 10.5918C20.2183 10.5918 16.3281 14.482 16.3281 19.2637C16.3281 22.2255 17.821 24.8448 20.0935 26.4099C17.9718 27.142 16.0272 28.3514 14.3934 29.9852C11.5603 32.8183 10 36.5852 10 40.5918H12.3438C12.3438 33.6131 18.0213 27.9355 25 27.9355C31.9787 27.9355 37.6562 33.6131 37.6562 40.5918H40C40 36.5852 38.4397 32.8183 35.6066 29.9852ZM25 25.5918C21.5107 25.5918 18.6719 22.753 18.6719 19.2637C18.6719 15.7743 21.5107 12.9355 25 12.9355C28.4893 12.9355 31.3281 15.7743 31.3281 19.2637C31.3281 22.753 28.4893 25.5918 25 25.5918Z" fill="white"/>
</g>
<defs>
<linearGradient id="paint0_linear_2126_1785" x1="7.30477" y1="43.287" x2="42.6952" y2="7.89832" gradientUnits="userSpaceOnUse">
<stop stop-color="#FAAD4F"/>
<stop offset="0.35" stop-color="#DD2A7B"/>
<stop offset="0.62" stop-color="#9537B0"/>
<stop offset="1" stop-color="#515BD4"/>
</linearGradient>
<clipPath id="clip0_2126_1785">
<rect width="30" height="30" fill="white" transform="translate(10 10.5918)"/>
</clipPath>
</defs>
</svg>
