<svg width="62" height="72" viewBox="0 0 62 72" fill="none" xmlns="http://www.w3.org/2000/svg">
<path d="M31 0C13.9006 0 0.0625 13.8381 0.0625 30.9375V46.6875C0.0625 51.3399 3.84756 55.125 8.5 55.125C13.1524 55.125 16.9375 51.3399 16.9375 46.6875V36.5625C16.9375 31.9101 13.1524 28.125 8.5 28.125C7.55542 28.125 6.64769 28.2833 5.79902 28.5709C6.9963 15.7192 17.8407 5.625 31 5.625C44.1593 5.625 55.0037 15.7192 56.201 28.5709C55.3523 28.2833 54.4446 28.125 53.5 28.125C48.8476 28.125 45.0625 31.9101 45.0625 36.5625V46.6875C45.0625 51.3399 48.8476 55.125 53.5 55.125C54.3515 55.125 55.1734 54.997 55.9488 54.7613C54.8968 58.2231 51.676 60.75 47.875 60.75H38.9538C37.7928 57.4765 34.6665 55.125 31 55.125C26.3476 55.125 22.5625 58.9101 22.5625 63.5625C22.5625 68.2149 26.3476 72 31 72C34.6665 72 37.7926 69.6485 38.9538 66.375H47.875C55.6291 66.375 61.9375 60.0666 61.9375 52.3125V30.9375C61.9375 13.8381 48.0994 0 31 0ZM8.5 33.75C10.0508 33.75 11.3125 35.0117 11.3125 36.5625V46.6875C11.3125 48.2383 10.0508 49.5 8.5 49.5C6.94919 49.5 5.6875 48.2383 5.6875 46.6875V36.5625C5.6875 35.0117 6.94919 33.75 8.5 33.75ZM31 66.375C29.4492 66.375 28.1875 65.1133 28.1875 63.5625C28.1875 62.0117 29.4492 60.75 31 60.75C32.5508 60.75 33.8125 62.0117 33.8125 63.5625C33.8125 65.1133 32.5508 66.375 31 66.375ZM53.5 49.5C51.9492 49.5 50.6875 48.2383 50.6875 46.6875V36.5625C50.6875 35.0117 51.9492 33.75 53.5 33.75C55.0508 33.75 56.3125 35.0117 56.3125 36.5625V46.6875C56.3125 48.2383 55.0508 49.5 53.5 49.5Z" fill="url(#paint0_linear_2258_20845)" fill-opacity="0.8"/>
<defs>
<linearGradient id="paint0_linear_2258_20845" x1="9.10215" y1="61.4811" x2="59.4844" y2="18.1861" gradientUnits="userSpaceOnUse">
<stop stop-color="#FAAD4F"/>
<stop offset="0.35" stop-color="#DD2A7B"/>
<stop offset="0.62" stop-color="#9537B0"/>
<stop offset="1" stop-color="#515BD4"/>
</linearGradient>
</defs>
</svg>
