<svg width="50" height="51" viewBox="0 0 50 51" fill="none" xmlns="http://www.w3.org/2000/svg">
<rect y="0.591797" width="50" height="50" rx="8" fill="url(#paint0_linear_2126_1842)" fill-opacity="0.8"/>
<path d="M25 10.5918C16.7095 10.5918 10 17.3005 10 25.5918C10 33.8822 16.7088 40.5918 25 40.5918C33.2905 40.5918 40 33.883 40 25.5918C40 17.3013 33.2913 10.5918 25 10.5918ZM25 38.4988C17.8831 38.4988 12.093 32.7088 12.093 25.5918C12.093 18.4748 17.8831 12.6848 25 12.6848C32.117 12.6848 37.907 18.4748 37.907 25.5918C37.907 32.7088 32.117 38.4988 25 38.4988Z" fill="white" stroke="white"/>
<path d="M24.5553 29.5713C23.726 29.5713 23.0547 30.2623 23.0547 31.0916C23.0547 31.9012 23.7063 32.612 24.5553 32.612C25.4043 32.612 26.0755 31.9012 26.0755 31.0916C26.0755 30.2623 25.3845 29.5713 24.5553 29.5713Z" fill="white" stroke="white"/>
<path d="M24.8135 18.0605C22.148 18.0605 20.9238 19.6402 20.9238 20.7063C20.9238 21.4764 21.5754 21.8318 22.1085 21.8318C23.1747 21.8318 22.7404 20.3114 24.7543 20.3114C25.7415 20.3114 26.5313 20.7458 26.5313 21.6541C26.5313 22.7203 25.4256 23.3323 24.774 23.8852C24.2014 24.3787 23.4512 25.1883 23.4512 26.8863C23.4512 27.913 23.7276 28.2092 24.5371 28.2092C25.5045 28.2092 25.702 27.7749 25.702 27.3996C25.702 26.3729 25.7217 25.7806 26.8077 24.9316C27.3408 24.517 29.019 23.1743 29.019 21.3184C29.019 19.4624 27.3408 18.0605 24.8135 18.0605Z" fill="white" stroke="white"/>
<defs>
<linearGradient id="paint0_linear_2126_1842" x1="7.30477" y1="43.287" x2="42.6952" y2="7.89832" gradientUnits="userSpaceOnUse">
<stop stop-color="#FAAD4F"/>
<stop offset="0.35" stop-color="#DD2A7B"/>
<stop offset="0.62" stop-color="#9537B0"/>
<stop offset="1" stop-color="#515BD4"/>
</linearGradient>
</defs>
</svg>
