<svg width="50" height="51" viewBox="0 0 50 51" fill="none" xmlns="http://www.w3.org/2000/svg">
<rect y="0.591797" width="50" height="50" rx="8" fill="url(#paint0_linear_2126_1460)" fill-opacity="0.8"/>
<g clip-path="url(#clip0_2126_1460)">
<path d="M30.332 28.2871C30.8167 28.2871 31.2109 28.6761 31.2109 29.1543H32.9688C32.9688 28.0136 32.2339 27.041 31.2109 26.6798V24.7715H29.4531V26.6805C28.4301 27.0433 27.6953 28.0202 27.6953 29.166C27.6953 30.6199 28.8781 31.8027 30.332 31.8027C30.8167 31.8027 31.2109 32.197 31.2109 32.6816C31.2109 33.1663 30.8167 33.5605 30.332 33.5605C29.8474 33.5605 29.4531 33.1663 29.4531 32.6816H27.6953C27.6953 33.8274 28.4301 34.8044 29.4531 35.1672V37.0645H31.2109V35.1672C32.2339 34.8044 32.9688 33.8274 32.9688 32.6816C32.9688 31.2278 31.7859 30.0449 30.332 30.0449C29.8474 30.0449 29.4531 29.6506 29.4531 29.166C29.4531 28.6814 29.8474 28.2871 30.332 28.2871Z" fill="white"/>
<path d="M30.332 21.2559C30.0357 21.2559 29.7427 21.27 29.4531 21.2962V15.8652C29.4531 14.3412 28.3663 12.9584 26.393 11.9717C24.6133 11.0819 22.2666 10.5918 19.7852 10.5918C17.2987 10.5918 14.9332 11.0809 13.1244 11.9689C11.1096 12.9581 10 14.3418 10 15.8652V31.8027C10 33.3262 11.1096 34.7099 13.1244 35.6991C14.9332 36.5871 17.2987 37.0762 19.7852 37.0762C20.7818 37.0762 21.7567 36.9966 22.6923 36.8416C24.4625 39.1216 27.2286 40.5918 30.332 40.5918C35.6629 40.5918 40 36.2547 40 30.9238C40 25.5929 35.6629 21.2559 30.332 21.2559ZM13.8991 13.5468C15.4488 12.786 17.5941 12.3496 19.7852 12.3496C24.4468 12.3496 27.6953 14.2024 27.6953 15.8652C27.6953 17.5281 24.4468 19.3809 19.7852 19.3809C17.5941 19.3809 15.4488 18.9445 13.8991 18.1837C12.5383 17.5156 11.7578 16.6705 11.7578 15.8652C11.7578 15.0599 12.5383 14.2149 13.8991 13.5468ZM11.7578 18.9276C12.1518 19.2286 12.6081 19.5081 13.1244 19.7616C14.9332 20.6496 17.2987 21.1387 19.7852 21.1387C22.2666 21.1387 24.6133 20.6486 26.393 19.7587C26.8828 19.5138 27.3178 19.2445 27.6953 18.9547V21.6213C25.9436 22.1185 24.393 23.0984 23.1966 24.4073C22.1257 24.6489 20.9796 24.7715 19.7852 24.7715C17.5941 24.7715 15.4488 24.3351 13.8991 23.5743C12.5383 22.9062 11.7578 22.0612 11.7578 21.2559V18.9276ZM11.7578 24.3183C12.1518 24.6193 12.6081 24.8988 13.1244 25.1522C14.9332 26.0402 17.2987 26.5293 19.7852 26.5293C20.4637 26.5293 21.1294 26.4929 21.7786 26.4215C21.2011 27.5143 20.8269 28.7302 20.7067 30.0189C20.4014 30.0357 20.0935 30.0449 19.7852 30.0449C17.5941 30.0449 15.4488 29.6086 13.8991 28.8477C12.5383 28.1796 11.7578 27.3346 11.7578 26.5293V24.3183ZM19.7852 35.3184C17.5941 35.3184 15.4488 34.882 13.8991 34.1212C12.5383 33.4531 11.7578 32.608 11.7578 31.8027V29.5916C12.1518 29.8926 12.6081 30.1721 13.1244 30.4256C14.9332 31.3137 17.2987 31.8027 19.7852 31.8027C20.0916 31.8027 20.398 31.795 20.7024 31.78C20.8102 33.0027 21.1465 34.1607 21.6684 35.2111C21.0555 35.2818 20.426 35.3184 19.7852 35.3184ZM30.332 38.834C25.9704 38.834 22.4219 35.2855 22.4219 30.9238C22.4219 26.5622 25.9704 23.0137 30.332 23.0137C34.6937 23.0137 38.2422 26.5622 38.2422 30.9238C38.2422 35.2855 34.6937 38.834 30.332 38.834Z" fill="white"/>
</g>
<defs>
<linearGradient id="paint0_linear_2126_1460" x1="7.30477" y1="43.287" x2="42.6952" y2="7.89832" gradientUnits="userSpaceOnUse">
<stop stop-color="#FAAD4F"/>
<stop offset="0.35" stop-color="#DD2A7B"/>
<stop offset="0.62" stop-color="#9537B0"/>
<stop offset="1" stop-color="#515BD4"/>
</linearGradient>
<clipPath id="clip0_2126_1460">
<rect width="30" height="30" fill="white" transform="translate(10 10.5918)"/>
</clipPath>
</defs>
</svg>
