<svg width="50" height="51" viewBox="0 0 50 51" fill="none" xmlns="http://www.w3.org/2000/svg">
<rect y="0.0917969" width="50" height="50" rx="8" fill="url(#paint0_linear_2126_1618)" fill-opacity="0.8"/>
<g clip-path="url(#clip0_2126_1618)">
<path d="M39.5312 17.3574H34.8438V15.9512C34.8438 15.2674 34.5721 14.6117 34.0886 14.1282C33.6051 13.6447 32.9494 13.373 32.2656 13.373C31.5819 13.373 30.9261 13.6447 30.4426 14.1282C29.9591 14.6117 29.6875 15.2674 29.6875 15.9512V17.3574H19.8438C19.7194 17.3574 19.6002 17.4068 19.5123 17.4947C19.4244 17.5826 19.375 17.7019 19.375 17.8262V19.4668C19.375 19.9019 19.2021 20.3192 18.8945 20.6269C18.5868 20.9346 18.1695 21.1074 17.7344 21.1074C17.2993 21.1074 16.882 20.9346 16.5743 20.6269C16.2666 20.3192 16.0938 19.9019 16.0938 19.4668V17.8262C16.0938 17.7019 16.0444 17.5826 15.9565 17.4947C15.8685 17.4068 15.7493 17.3574 15.625 17.3574H10.4688C10.3444 17.3574 10.2252 17.4068 10.1373 17.4947C10.0494 17.5826 10 17.7019 10 17.8262V32.3574C10 32.4817 10.0494 32.601 10.1373 32.6889C10.2252 32.7768 10.3444 32.8262 10.4688 32.8262H15.1562V34.2324C15.1562 34.9162 15.4279 35.5719 15.9114 36.0554C16.3949 36.5389 17.0506 36.8105 17.7344 36.8105C18.4181 36.8105 19.0739 36.5389 19.5574 36.0554C20.0409 35.5719 20.3125 34.9162 20.3125 34.2324V32.8262H30.1562C30.2806 32.8262 30.3998 32.7768 30.4877 32.6889C30.5756 32.601 30.625 32.4817 30.625 32.3574V30.7168C30.625 30.2817 30.7979 29.8644 31.1055 29.5567C31.4132 29.249 31.8305 29.0762 32.2656 29.0762C32.7007 29.0762 33.118 29.249 33.4257 29.5567C33.7334 29.8644 33.9062 30.2817 33.9062 30.7168V32.3574C33.9062 32.4817 33.9556 32.601 34.0435 32.6889C34.1315 32.7768 34.2507 32.8262 34.375 32.8262H39.5312C39.6556 32.8262 39.7748 32.7768 39.8627 32.6889C39.9506 32.601 40 32.4817 40 32.3574V17.8262C40 17.7019 39.9506 17.5826 39.8627 17.4947C39.7748 17.4068 39.6556 17.3574 39.5312 17.3574ZM19.8438 31.8887C19.7194 31.8887 19.6002 31.9381 19.5123 32.026C19.4244 32.1139 19.375 32.2331 19.375 32.3574V34.2324C19.375 34.6675 19.2021 35.0848 18.8945 35.3925C18.5868 35.7002 18.1695 35.873 17.7344 35.873C17.2993 35.873 16.882 35.7002 16.5743 35.3925C16.2666 35.0848 16.0938 34.6675 16.0938 34.2324V32.3574C16.0938 32.2331 16.0444 32.1139 15.9565 32.026C15.8685 31.9381 15.7493 31.8887 15.625 31.8887H10.9375V18.2949H15.1562V19.4668C15.1562 20.1506 15.4279 20.8063 15.9114 21.2898C16.3949 21.7733 17.0506 22.0449 17.7344 22.0449C18.4181 22.0449 19.0739 21.7733 19.5574 21.2898C20.0409 20.8063 20.3125 20.1506 20.3125 19.4668V18.2949H24.5312V22.5137H23.3594C22.6756 22.5137 22.0199 22.7853 21.5364 23.2688C21.0529 23.7523 20.7812 24.408 20.7812 25.0918C20.7812 25.7756 21.0529 26.4313 21.5364 26.9148C22.0199 27.3983 22.6756 27.6699 23.3594 27.6699H24.5312V31.8887H19.8438ZM39.0625 31.8887H34.8438V30.7168C34.8438 30.033 34.5721 29.3773 34.0886 28.8938C33.6051 28.4103 32.9494 28.1387 32.2656 28.1387C31.5819 28.1387 30.9261 28.4103 30.4426 28.8938C29.9591 29.3773 29.6875 30.033 29.6875 30.7168V31.8887H25.4688V27.2012C25.4688 27.0769 25.4194 26.9576 25.3315 26.8697C25.2435 26.7818 25.1243 26.7324 25 26.7324H23.3594C22.9243 26.7324 22.507 26.5596 22.1993 26.2519C21.8916 25.9442 21.7188 25.5269 21.7188 25.0918C21.7188 24.6567 21.8916 24.2394 22.1993 23.9317C22.507 23.624 22.9243 23.4512 23.3594 23.4512H25C25.1243 23.4512 25.2435 23.4018 25.3315 23.3139C25.4194 23.226 25.4688 23.1067 25.4688 22.9824V18.2949H30.1562C30.2806 18.2949 30.3998 18.2455 30.4877 18.1576C30.5756 18.0697 30.625 17.9505 30.625 17.8262V15.9512C30.625 15.5161 30.7979 15.0988 31.1055 14.7911C31.4132 14.4834 31.8305 14.3105 32.2656 14.3105C32.7007 14.3105 33.118 14.4834 33.4257 14.7911C33.7334 15.0988 33.9062 15.5161 33.9062 15.9512V17.8262C33.9062 17.9505 33.9556 18.0697 34.0435 18.1576C34.1315 18.2455 34.2507 18.2949 34.375 18.2949H39.0625V31.8887Z" fill="white" stroke="white"/>
</g>
<defs>
<linearGradient id="paint0_linear_2126_1618" x1="7.30477" y1="42.787" x2="42.6952" y2="7.39832" gradientUnits="userSpaceOnUse">
<stop stop-color="#FAAD4F"/>
<stop offset="0.35" stop-color="#DD2A7B"/>
<stop offset="0.62" stop-color="#9537B0"/>
<stop offset="1" stop-color="#515BD4"/>
</linearGradient>
<clipPath id="clip0_2126_1618">
<rect width="30" height="30" fill="white" transform="translate(10 10.0918)"/>
</clipPath>
</defs>
</svg>
