<svg width="50" height="51" viewBox="0 0 50 51" fill="none" xmlns="http://www.w3.org/2000/svg">
<rect y="0.0913086" width="50" height="50" rx="8" fill="url(#paint0_linear_2353_9040)" fill-opacity="0.8"/>
<path d="M20 23.8413H15C14.0054 23.8413 13.0516 23.4462 12.3483 22.743C11.6451 22.0397 11.25 21.0859 11.25 20.0913V15.0913C11.25 14.0967 11.6451 13.1429 12.3483 12.4397C13.0516 11.7364 14.0054 11.3413 15 11.3413H20C20.9946 11.3413 21.9484 11.7364 22.6517 12.4397C23.3549 13.1429 23.75 14.0967 23.75 15.0913V20.0913C23.75 21.0859 23.3549 22.0397 22.6517 22.743C21.9484 23.4462 20.9946 23.8413 20 23.8413ZM15 13.8413C14.6685 13.8413 14.3505 13.973 14.1161 14.2074C13.8817 14.4418 13.75 14.7598 13.75 15.0913V20.0913C13.75 20.4228 13.8817 20.7408 14.1161 20.9752C14.3505 21.2096 14.6685 21.3413 15 21.3413H20C20.3315 21.3413 20.6495 21.2096 20.8839 20.9752C21.1183 20.7408 21.25 20.4228 21.25 20.0913V15.0913C21.25 14.7598 21.1183 14.4418 20.8839 14.2074C20.6495 13.973 20.3315 13.8413 20 13.8413H15ZM35 23.8413H30C29.0054 23.8413 28.0516 23.4462 27.3483 22.743C26.6451 22.0397 26.25 21.0859 26.25 20.0913V15.0913C26.25 14.0967 26.6451 13.1429 27.3483 12.4397C28.0516 11.7364 29.0054 11.3413 30 11.3413H35C35.9946 11.3413 36.9484 11.7364 37.6517 12.4397C38.3549 13.1429 38.75 14.0967 38.75 15.0913V20.0913C38.75 21.0859 38.3549 22.0397 37.6517 22.743C36.9484 23.4462 35.9946 23.8413 35 23.8413ZM30 13.8413C29.6685 13.8413 29.3505 13.973 29.1161 14.2074C28.8817 14.4418 28.75 14.7598 28.75 15.0913V20.0913C28.75 20.4228 28.8817 20.7408 29.1161 20.9752C29.3505 21.2096 29.6685 21.3413 30 21.3413H35C35.3315 21.3413 35.6495 21.2096 35.8839 20.9752C36.1183 20.7408 36.25 20.4228 36.25 20.0913V15.0913C36.25 14.7598 36.1183 14.4418 35.8839 14.2074C35.6495 13.973 35.3315 13.8413 35 13.8413H30ZM20 38.8413H15C14.0054 38.8413 13.0516 38.4462 12.3483 37.743C11.6451 37.0397 11.25 36.0859 11.25 35.0913V30.0913C11.25 29.0967 11.6451 28.1429 12.3483 27.4397C13.0516 26.7364 14.0054 26.3413 15 26.3413H20C20.9946 26.3413 21.9484 26.7364 22.6517 27.4397C23.3549 28.1429 23.75 29.0967 23.75 30.0913V35.0913C23.75 36.0859 23.3549 37.0397 22.6517 37.743C21.9484 38.4462 20.9946 38.8413 20 38.8413ZM15 28.8413C14.6685 28.8413 14.3505 28.973 14.1161 29.2074C13.8817 29.4418 13.75 29.7598 13.75 30.0913V35.0913C13.75 35.4228 13.8817 35.7408 14.1161 35.9752C14.3505 36.2096 14.6685 36.3413 15 36.3413H20C20.3315 36.3413 20.6495 36.2096 20.8839 35.9752C21.1183 35.7408 21.25 35.4228 21.25 35.0913V30.0913C21.25 29.7598 21.1183 29.4418 20.8839 29.2074C20.6495 28.973 20.3315 28.8413 20 28.8413H15ZM35 38.8413H30C29.0054 38.8413 28.0516 38.4462 27.3483 37.743C26.6451 37.0397 26.25 36.0859 26.25 35.0913V30.0913C26.25 29.0967 26.6451 28.1429 27.3483 27.4397C28.0516 26.7364 29.0054 26.3413 30 26.3413H35C35.9946 26.3413 36.9484 26.7364 37.6517 27.4397C38.3549 28.1429 38.75 29.0967 38.75 30.0913V35.0913C38.75 36.0859 38.3549 37.0397 37.6517 37.743C36.9484 38.4462 35.9946 38.8413 35 38.8413ZM30 28.8413C29.6685 28.8413 29.3505 28.973 29.1161 29.2074C28.8817 29.4418 28.75 29.7598 28.75 30.0913V35.0913C28.75 35.4228 28.8817 35.7408 29.1161 35.9752C29.3505 36.2096 29.6685 36.3413 30 36.3413H35C35.3315 36.3413 35.6495 36.2096 35.8839 35.9752C36.1183 35.7408 36.25 35.4228 36.25 35.0913V30.0913C36.25 29.7598 36.1183 29.4418 35.8839 29.2074C35.6495 28.973 35.3315 28.8413 35 28.8413H30Z" fill="white"/>
<defs>
<linearGradient id="paint0_linear_2353_9040" x1="7.30477" y1="42.7865" x2="42.6952" y2="7.39783" gradientUnits="userSpaceOnUse">
<stop stop-color="#FAAD4F"/>
<stop offset="0.35" stop-color="#DD2A7B"/>
<stop offset="0.62" stop-color="#9537B0"/>
<stop offset="1" stop-color="#515BD4"/>
</linearGradient>
</defs>
</svg>
