<svg width="50" height="51" viewBox="0 0 50 51" fill="none" xmlns="http://www.w3.org/2000/svg">
<rect y="0.0917969" width="50" height="50" rx="8" fill="url(#paint0_linear_2126_1557)" fill-opacity="0.8"/>
<g clip-path="url(#clip0_2126_1557)">
<path d="M38.0555 21.3947L26.4576 9.79675C25.2587 8.59773 23.3076 8.59766 22.1085 9.79675C21.0306 10.8746 20.9378 12.5184 21.7338 13.6922L21.7176 13.7729C20.8814 17.9541 18.8458 21.7579 15.8305 24.7731L10.5109 30.0928C9.30898 31.2947 9.30877 33.2399 10.5109 34.4419L13.4103 37.3413C14.6121 38.5432 16.5575 38.5433 17.7594 37.3413L18.4843 36.6164L23.5583 41.6904C24.7602 42.8924 26.7055 42.8925 27.9074 41.6904C29.1065 40.4914 29.1065 38.5404 27.9074 37.3414L25.7328 35.1668L26.4577 34.4419C27.6596 33.2401 27.6597 31.2948 26.4577 30.0928L25.9651 29.6002C28.3884 27.9035 31.1405 26.7224 34.0794 26.1345L34.1612 26.1182C35.3611 26.9283 37.0011 26.7981 38.0555 25.7437H38.0556C39.2545 24.5447 39.2545 22.5937 38.0555 21.3947ZM16.3097 35.8916C15.9091 36.2921 15.2605 36.2922 14.86 35.8915L11.9606 32.9921C11.5599 32.5914 11.5599 31.9431 11.9606 31.5424L17.0345 26.4684L21.3837 30.8176C20.8873 31.314 16.8184 35.3829 16.3097 35.8916ZM26.4576 38.791C26.8573 39.1906 26.8573 39.841 26.4576 40.2407C26.058 40.6403 25.4076 40.6403 25.008 40.2407L19.9339 35.1666L21.3837 33.717L26.4576 38.791ZM22.8334 32.2673C23.1415 31.9591 23.6028 31.4871 24.3309 30.8653L25.008 31.5424C25.4086 31.9431 25.4086 32.5914 25.008 32.9921L24.2831 33.717L22.8334 32.2673ZM22.8769 29.4115L18.4405 24.9751C20.818 22.2299 22.5206 18.9893 23.4315 15.4688L32.3832 24.4206C28.8627 25.3314 25.6222 27.0339 22.8769 29.4115ZM36.6056 24.2939C36.205 24.6945 35.5566 24.6945 35.156 24.2939L23.5582 12.6961C23.1575 12.2954 23.1575 11.6471 23.5582 11.2464C23.9588 10.8458 24.6073 10.8458 25.008 11.2464L36.6056 22.8441C37.0053 23.2438 37.0053 23.8941 36.6056 24.2939Z" fill="white"/>
<path d="M17.7582 30.0922C17.358 29.6919 16.7088 29.6919 16.3085 30.0922L14.8588 31.5419C14.4585 31.9422 14.4585 32.5913 14.8588 32.9916C15.2591 33.3919 15.9083 33.3919 16.3085 32.9916L17.7582 31.5419C18.1585 31.1416 18.1585 30.4925 17.7582 30.0922Z" fill="white"/>
<path d="M31.1657 7.5918C30.5996 7.5918 30.1406 8.05076 30.1406 8.61691V10.6671C30.1406 11.2333 30.5996 11.6923 31.1657 11.6923C31.7319 11.6923 32.1909 11.2333 32.1909 10.6671V8.61691C32.1909 8.05076 31.7319 7.5918 31.1657 7.5918Z" fill="white"/>
<path d="M39.3664 15.793H37.3161C36.75 15.793 36.291 16.2519 36.291 16.8181C36.291 17.3842 36.75 17.8432 37.3161 17.8432H39.3664C39.9325 17.8432 40.3915 17.3842 40.3915 16.8181C40.3915 16.2519 39.9324 15.793 39.3664 15.793Z" fill="white"/>
<path d="M38.0404 9.94184C37.6401 9.54152 36.991 9.54152 36.5907 9.94184L34.5405 11.9921C34.1402 12.3924 34.1402 13.0414 34.5405 13.4418C34.9407 13.8421 35.5899 13.8421 35.9902 13.4418L38.0404 11.3915C38.4407 10.9912 38.4407 10.3422 38.0404 9.94184Z" fill="white"/>
</g>
<defs>
<linearGradient id="paint0_linear_2126_1557" x1="7.30477" y1="42.787" x2="42.6952" y2="7.39832" gradientUnits="userSpaceOnUse">
<stop stop-color="#FAAD4F"/>
<stop offset="0.35" stop-color="#DD2A7B"/>
<stop offset="0.62" stop-color="#9537B0"/>
<stop offset="1" stop-color="#515BD4"/>
</linearGradient>
<clipPath id="clip0_2126_1557">
<rect width="35" height="35" fill="white" transform="translate(7.5 7.5918)"/>
</clipPath>
</defs>
</svg>
