<svg width="50" height="51" viewBox="0 0 50 51" fill="none" xmlns="http://www.w3.org/2000/svg">
<rect y="0.591309" width="50" height="50" rx="8" fill="url(#paint0_linear_2353_9060)" fill-opacity="0.8"/>
<path d="M39.7418 32.4211L36.6668 30.8836L34.7098 25.793C34.6868 25.7328 34.6516 25.678 34.6064 25.6321C34.5612 25.5861 34.5071 25.5499 34.4473 25.5258L22.3043 20.6719C22.2194 20.6381 22.1265 20.6299 22.037 20.6482C21.9475 20.6665 21.8652 20.7106 21.8004 20.775L20.1809 22.3946C20.1173 22.4594 20.074 22.5414 20.0561 22.6304C20.0382 22.7194 20.0465 22.8118 20.0801 22.8961L24.934 35.0391C24.9581 35.0989 24.9943 35.153 25.0403 35.1982C25.0862 35.2434 25.141 35.2786 25.2012 35.3016L30.2918 37.2586L31.8293 40.3336C31.8617 40.4014 31.9099 40.4605 31.9699 40.5057C32.0298 40.551 32.0998 40.5812 32.1739 40.5938C32.1988 40.5961 32.2239 40.5961 32.2489 40.5938C32.373 40.5933 32.4918 40.5435 32.5793 40.4555L39.8637 33.1711C39.9173 33.1194 39.9578 33.0556 39.9819 32.9851C40.0059 32.9146 40.0128 32.8394 40.002 32.7657C39.9894 32.6916 39.9592 32.6216 39.9139 32.5617C39.8687 32.5017 39.8096 32.4535 39.7418 32.4211ZM21.0622 22.8352L21.3223 22.5774L27.3668 28.6219C26.9685 29.1864 26.7964 29.8798 26.8847 30.565C26.973 31.2502 27.3152 31.8774 27.8436 32.3224C28.3721 32.7675 29.0482 32.9981 29.7385 32.9686C30.4287 32.9391 31.0828 32.6516 31.5713 32.1631C32.0599 31.6746 32.3473 31.0205 32.3768 30.3303C32.4063 29.64 32.1757 28.9638 31.7306 28.4354C31.2856 27.907 30.6584 27.5648 29.9732 27.4765C29.288 27.3882 28.5946 27.5603 28.0301 27.9586L21.9856 21.9141L22.2434 21.6539L33.9083 26.3204L35.7481 31.1063L30.5145 36.3399L25.7286 34.5L21.0622 22.8352ZM29.6192 28.3899C30.0405 28.3905 30.4485 28.5372 30.7738 28.8049C31.0991 29.0726 31.3215 29.4449 31.4031 29.8582C31.4847 30.2715 31.4205 30.7003 31.2214 31.0716C31.0223 31.4428 30.7007 31.7336 30.3112 31.8943C29.9218 32.0551 29.4887 32.0758 29.0857 31.953C28.6827 31.8302 28.3348 31.5715 28.1011 31.221C27.8675 30.8704 27.7626 30.4497 27.8044 30.0305C27.8461 29.6113 28.0319 29.2195 28.3301 28.9219C28.6723 28.5808 29.136 28.3894 29.6192 28.3899ZM32.3778 39.3329L31.2059 36.9891L36.3926 31.8024L38.7364 32.9743L32.3778 39.3329Z" fill="white" stroke="white" stroke-width="0.5"/>
<path d="M18.9659 35.6723C18.8763 35.5876 18.7576 35.5404 18.6343 35.5404C18.5109 35.5404 18.3923 35.5876 18.3026 35.6723L17.7073 36.2676C16.1187 34.1115 15.2423 31.5134 15.2003 28.8356C15.1583 26.1577 15.9527 23.5335 17.473 21.3286C17.9284 21.5792 18.4528 21.6755 18.9676 21.6029C19.4824 21.5304 19.9598 21.2931 20.3283 20.9264C20.6968 20.5597 20.9366 20.0835 21.0117 19.5691C21.0868 19.0547 20.9932 18.5298 20.7448 18.0731C22.9497 16.5529 25.574 15.7584 28.2519 15.8004C30.9297 15.8424 33.5278 16.7188 35.6839 18.3075L35.0792 18.8957C34.992 18.9836 34.9432 19.1024 34.9433 19.2262C34.9429 19.2879 34.9547 19.3491 34.9781 19.4062C35.0014 19.4633 35.0358 19.5152 35.0792 19.559L37.1464 21.6098C37.2342 21.6971 37.353 21.7461 37.4769 21.7461C37.6007 21.7461 37.7195 21.6971 37.8073 21.6098L39.8628 19.5543C39.9064 19.5108 39.941 19.4591 39.9645 19.4022C39.9881 19.3453 40.0003 19.2843 40.0003 19.2227C40.0003 19.1611 39.9881 19.1001 39.9645 19.0432C39.941 18.9863 39.9064 18.9346 39.8628 18.8911L37.8073 16.8356C37.7195 16.7483 37.6007 16.6993 37.4769 16.6993C37.353 16.6993 37.2342 16.7483 37.1464 16.8356L36.3519 17.6254C34.3937 16.1519 32.0786 15.2261 29.6443 14.9432C27.21 14.6602 24.7443 15.0302 22.5003 16.0153L25.2026 13.32C25.509 13.4664 25.8574 13.4995 26.1859 13.4135C26.5144 13.3275 26.8019 13.1279 26.9972 12.8501C27.1926 12.5724 27.2832 12.2344 27.2531 11.8961C27.223 11.5579 27.074 11.2412 26.8326 11.0024C26.5912 10.7635 26.273 10.6179 25.9345 10.5913C25.5959 10.5648 25.2589 10.659 24.9832 10.8572C24.7075 11.0555 24.511 11.345 24.4284 11.6744C24.3459 12.0038 24.3827 12.3518 24.5323 12.6567L19.9714 17.2247C19.5083 16.914 18.9517 16.7738 18.3967 16.828C17.8417 16.8821 17.3228 17.1273 16.9285 17.5216C16.5342 17.9159 16.289 18.4349 16.2348 18.9898C16.1807 19.5448 16.3209 20.1014 16.6315 20.5645L12.0636 25.1254C11.7575 24.9763 11.4085 24.9405 11.0786 25.0244C10.7486 25.1083 10.4591 25.3064 10.2615 25.5836C10.0638 25.8608 9.97087 26.1991 9.9991 26.5384C10.0273 26.8777 10.1749 27.1959 10.4156 27.4367C10.6564 27.6774 10.9746 27.825 11.3139 27.8532C11.6532 27.8814 11.9915 27.7884 12.2687 27.5908C12.5459 27.3932 12.744 27.1036 12.8279 26.7737C12.9118 26.4438 12.876 26.0948 12.7269 25.7887L15.4292 23.0934C14.4432 25.3368 14.072 27.8022 14.3537 30.2364C14.6354 32.6707 15.5599 34.9861 17.0323 36.945L16.2401 37.7395C16.1528 37.8273 16.1038 37.9461 16.1038 38.07C16.1038 38.1938 16.1528 38.3126 16.2401 38.4004L18.2956 40.4559C18.3831 40.5439 18.502 40.5937 18.6261 40.5942C18.6879 40.5942 18.7492 40.582 18.8063 40.5583C18.8634 40.5346 18.9153 40.4998 18.9589 40.4559L21.0167 38.4004C21.104 38.3126 21.153 38.1938 21.153 38.07C21.153 37.9461 21.104 37.8273 21.0167 37.7395L18.9659 35.6723ZM37.4815 17.8247L38.8737 19.2168L37.4815 20.609L36.0894 19.2168L37.4815 17.8247ZM25.4698 11.6793C25.5395 11.6091 25.6284 11.5612 25.7254 11.5416C25.8223 11.522 25.9229 11.5316 26.0144 11.5693C26.1058 11.607 26.184 11.6709 26.2391 11.7531C26.2941 11.8353 26.3235 11.932 26.3235 12.0309C26.3235 12.1298 26.2941 12.2265 26.2391 12.3087C26.184 12.3909 26.1058 12.4548 26.0144 12.4925C25.9229 12.5302 25.8223 12.5398 25.7254 12.5202C25.6284 12.5006 25.5395 12.4527 25.4698 12.3825C25.4236 12.3363 25.387 12.2815 25.362 12.2212C25.3369 12.1609 25.3241 12.0962 25.3241 12.0309C25.3241 11.9656 25.3369 11.9009 25.362 11.8406C25.387 11.7803 25.4236 11.7255 25.4698 11.6793ZM17.5948 18.1879C17.7309 18.0512 17.8927 17.9426 18.0709 17.8686C18.2491 17.7945 18.4402 17.7564 18.6331 17.7564C18.8261 17.7564 19.0171 17.7945 19.1953 17.8686C19.3735 17.9426 19.5353 18.0512 19.6714 18.1879C19.8771 18.3934 20.0173 18.6552 20.0742 18.9403C20.1311 19.2255 20.1022 19.521 19.991 19.7897C19.8798 20.0584 19.6915 20.288 19.4498 20.4496C19.2081 20.6112 18.9239 20.6974 18.6331 20.6974C18.3424 20.6974 18.0581 20.6112 17.8164 20.4496C17.5747 20.288 17.3864 20.0584 17.2752 19.7897C17.1641 19.521 17.1351 19.2255 17.192 18.9403C17.2489 18.6552 17.3891 18.3934 17.5948 18.1879ZM11.7917 26.7661C11.696 26.8459 11.5739 26.887 11.4494 26.8814C11.325 26.8757 11.2071 26.8238 11.119 26.7357C11.0309 26.6476 10.9789 26.5297 10.9733 26.4052C10.9676 26.2807 11.0088 26.1586 11.0886 26.0629C11.1824 25.9708 11.3086 25.9191 11.4401 25.9191C11.5717 25.9191 11.6979 25.9708 11.7917 26.0629C11.8379 26.1091 11.8746 26.1639 11.8996 26.2242C11.9246 26.2845 11.9375 26.3492 11.9375 26.4145C11.9375 26.4798 11.9246 26.5445 11.8996 26.6048C11.8746 26.6651 11.8379 26.7199 11.7917 26.7661ZM18.6331 39.4528L17.2409 38.0606L18.6331 36.6684L20.0253 38.0606L18.6331 39.4528Z" fill="white" stroke="white" stroke-width="0.5"/>
<defs>
<linearGradient id="paint0_linear_2353_9060" x1="7.30477" y1="43.2865" x2="42.6952" y2="7.89783" gradientUnits="userSpaceOnUse">
<stop stop-color="#FAAD4F"/>
<stop offset="0.35" stop-color="#DD2A7B"/>
<stop offset="0.62" stop-color="#9537B0"/>
<stop offset="1" stop-color="#515BD4"/>
</linearGradient>
</defs>
</svg>
