<svg width="50" height="51" viewBox="0 0 50 51" fill="none" xmlns="http://www.w3.org/2000/svg">
<rect y="0.0913086" width="50" height="50" rx="8" fill="url(#paint0_linear_2353_9028)" fill-opacity="0.8"/>
<g clip-path="url(#clip0_2353_9028)">
<path d="M11.8151 19.5015H10.8735C9.70839 19.5447 9.70927 21.2168 10.8735 21.2596H11.8151C12.9802 21.2164 12.9793 19.5443 11.8151 19.5015Z" fill="white"/>
<path d="M34.4126 21.2596H35.3541C36.5192 21.2164 36.5184 19.5443 35.3541 19.5015H34.4126C33.2475 19.5447 33.2483 21.2168 34.4126 21.2596Z" fill="white"/>
<path d="M23.1134 12.7855C23.5989 12.7855 23.9925 12.3919 23.9925 11.9064V10.9648C23.9493 9.7997 22.2772 9.80058 22.2344 10.9648V11.9064C22.2344 12.3919 22.6279 12.7855 23.1134 12.7855Z" fill="white"/>
<path d="M15.2606 13.1678L14.319 12.2262C13.9757 11.883 13.4191 11.8829 13.0758 12.2262C12.7325 12.5695 12.7325 13.1261 13.0758 13.4694L14.0174 14.411C14.3607 14.7544 14.9173 14.7542 15.2606 14.411C15.6039 14.0677 15.6039 13.5111 15.2606 13.1678Z" fill="white"/>
<path d="M32.2096 14.411L33.1512 13.4694C33.4945 13.1261 33.4945 12.5695 33.1512 12.2262C32.8079 11.883 32.2513 11.8829 31.908 12.2262L30.9665 13.1678C30.6232 13.5111 30.6232 14.0677 30.9665 14.411C31.3098 14.7544 31.8665 14.7542 32.2096 14.411Z" fill="white"/>
<path d="M39.2291 29.3947L38.1568 29.2608C38.0924 29.0862 38.0211 28.9141 37.9428 28.7449L38.6065 27.8915C38.8786 27.5415 38.8476 27.0438 38.5342 26.7303L36.5366 24.7327C36.2231 24.4193 35.7252 24.3883 35.3753 24.6604L34.5219 25.3241C34.3527 25.2459 34.1806 25.1744 34.0061 25.1101L33.8722 24.0378C33.8172 23.5979 33.4432 23.2677 32.9998 23.2677H31.5241C31.5627 18.6081 27.7724 14.7913 23.1132 14.7935C14.897 15.0667 12.0623 24.4759 17.5732 29.6312C18.5994 30.7872 19.4101 31.7004 19.4094 33.0913V35.9165C19.4094 37.5608 20.6436 38.9213 22.2342 39.1228V39.212C22.2774 40.3771 23.9495 40.3763 23.9923 39.212V39.1229C24.791 39.0197 25.5173 38.6178 26.0335 38.0212L26.6383 38.626C26.9519 38.9395 27.4497 38.9704 27.7995 38.6983L28.6529 38.0346C28.8222 38.1128 28.9943 38.1843 29.1688 38.2486L29.3027 39.3208C29.3577 39.7608 29.7316 40.091 30.175 40.091H32.9998C33.4431 40.091 33.8171 39.7608 33.8721 39.3209L34.006 38.2487C34.1806 38.1843 34.3528 38.1129 34.5219 38.0347L35.3752 38.6983C35.7253 38.9705 36.223 38.9395 36.5365 38.626L38.5341 36.6284C38.8476 36.315 38.8786 35.8171 38.6064 35.4672L37.9427 34.6138C38.021 34.4446 38.0924 34.2725 38.1567 34.0979L39.229 33.964C39.669 33.9091 39.9991 33.5351 39.9991 33.0918V30.267C39.9992 29.8237 39.669 29.4497 39.2291 29.3947ZM18.8879 28.464C17.6392 27.0574 16.4597 25.7287 16.4597 23.2052C16.4597 19.5364 19.4445 16.5517 23.1132 16.5517C26.8395 16.5462 29.8609 19.6448 29.7651 23.3691C29.5183 23.4994 29.3394 23.7441 29.3027 24.0379L29.1688 25.1102C28.9943 25.1745 28.8221 25.2459 28.6529 25.3242L27.7995 24.6605C27.4496 24.3884 26.9518 24.4194 26.6383 24.7329L24.6408 26.7304C24.3273 27.0439 24.2963 27.5417 24.5684 27.8917L25.2321 28.7451C25.1538 28.9142 25.0824 29.0864 25.0181 29.2609L23.9458 29.3949C23.5059 29.4498 23.1757 29.8238 23.1757 30.2671V32.2128H21.0935C20.8211 30.6414 19.8408 29.5373 18.8879 28.464ZM25.0589 34.8367L24.5685 35.4672C24.2963 35.8172 24.3273 36.315 24.6408 36.6285L24.7846 36.7724C24.5123 37.1512 24.0667 37.3914 23.584 37.3914H22.6425C21.8292 37.3914 21.1675 36.7298 21.1675 35.9165V33.9708H24.0001L25.0181 34.0979C25.0314 34.134 25.045 34.17 25.0589 34.2058V34.8367ZM38.2411 32.3157L37.3827 32.4229C37.0292 32.467 36.7373 32.7201 36.6436 33.0638C36.5286 33.4851 36.3596 33.8925 36.1413 34.2749C35.9646 34.5842 35.9921 34.9694 36.2107 35.2506L36.7423 35.9341L35.8421 36.8343L35.1586 36.3027C34.8773 36.084 34.492 36.0566 34.1828 36.2334C33.801 36.4516 33.3936 36.6206 32.9719 36.7356C32.6283 36.8294 32.3752 37.1213 32.331 37.4747L32.2238 38.3331H30.9512L30.8441 37.4747C30.7999 37.1212 30.5469 36.8293 30.2031 36.7356C29.782 36.6207 29.3745 36.4517 28.9921 36.2332C28.6828 36.0566 28.2976 36.0841 28.0165 36.3026L27.3329 36.8342L26.4328 35.9341L26.9644 35.2505C27.183 34.9693 27.2104 34.5839 27.0336 34.2746C26.8154 33.8928 26.6465 33.4855 26.5315 33.0639C26.4377 32.7202 26.1458 32.4671 25.7923 32.4229L24.934 32.3157V31.0432L25.7924 30.9359C26.1458 30.8918 26.4378 30.6386 26.5315 30.295C26.6463 29.8739 26.8153 29.4665 27.0338 29.084C27.2104 28.7748 27.183 28.3895 26.9644 28.1084L26.4328 27.4248L27.3329 26.5247L28.0165 27.0563C28.2977 27.275 28.6829 27.3023 28.9923 27.1256C29.3741 26.9073 29.7815 26.7384 30.2031 26.6234C30.5468 26.5296 30.7999 26.2377 30.8441 25.8842L30.9512 25.0259H32.2238L32.331 25.8842C32.3752 26.2377 32.6282 26.5296 32.9719 26.6233C33.3931 26.7382 33.8005 26.9072 34.183 27.1257C34.4923 27.3023 34.8775 27.2749 35.1586 27.0562L35.8421 26.5246L36.7423 27.4248L36.2107 28.1084C35.9921 28.3896 35.9647 28.775 36.1414 29.0843C36.3596 29.4659 36.5285 29.8733 36.6436 30.2951C36.7374 30.6387 37.0292 30.8918 37.3827 30.936L38.241 31.0432V32.3157H38.2411Z" fill="white"/>
<path d="M31.5885 28.4468C29.8058 28.4468 28.3555 29.8971 28.3555 31.6798C28.518 35.9629 34.6597 35.9618 34.8216 31.6798C34.8216 29.8971 33.3712 28.4468 31.5885 28.4468ZM31.5885 33.1547C30.7753 33.1547 30.1136 32.493 30.1136 31.6798C30.1877 29.7258 32.9896 29.7264 33.0634 31.6798C33.0634 32.4931 32.4018 33.1547 31.5885 33.1547Z" fill="white"/>
</g>
<defs>
<linearGradient id="paint0_linear_2353_9028" x1="7.30477" y1="42.7865" x2="42.6952" y2="7.39783" gradientUnits="userSpaceOnUse">
<stop stop-color="#FAAD4F"/>
<stop offset="0.35" stop-color="#DD2A7B"/>
<stop offset="0.62" stop-color="#9537B0"/>
<stop offset="1" stop-color="#515BD4"/>
</linearGradient>
<clipPath id="clip0_2353_9028">
<rect width="30" height="30" fill="white" transform="translate(10 10.0913)"/>
</clipPath>
</defs>
</svg>
